<svg xmlns="http://www.w3.org/2000/svg" xmlns:xlink="http://www.w3.org/1999/xlink" width="113.733" height="144" viewBox="0 0 113.733 144"><defs><style>.a{fill:none;}.b{fill:#d4ffde;}.c{fill:#045119;}.d{fill:#f6fbff;}.e{fill:#507ca0;}.f{fill:#142028;}.g{fill:#044413;}.h{fill:#de976d;}.i{fill:#624638;}.j{fill:#3b5a7a;}.k{fill:#33a84c;}.l{fill:#f8ffff;}.m{fill:#f3f3f3;}.n{clip-path:url(#a);}.o{fill:#ac6f8e;}.p{fill:#f0cad4;}.q{fill:#b9a197;}.r{fill:#c4c4c4;}.s{fill:#e695ae;}.t{fill:#98c0ef;}.u{fill:#eaad59;}.v{fill:#b687f2;}.w{clip-path:url(#c);}.x{fill:#726e8b;}.y{fill:#8c7866;}.z{fill:#ff9750;}.aa{fill:#ffb380;}.ab{fill:#e8833f;}.ac{fill:#d4f2ff;opacity:0.6;}.ad{opacity:0.8;}.ae{fill:#fff;}.af{fill:#ed823a;}.ag{fill:#7d7d7d;}.ah{fill:#797979;}.ai{fill:#999;}.aj{fill:#cc8244;}.ak{clip-path:url(#f);}.al{clip-path:url(#g);}.am{clip-path:url(#h);}</style><clipPath id="a"><ellipse class="a" cx="4.238" cy="7.34" rx="4.238" ry="7.34" transform="matrix(0.864, -0.503, 0.503, 0.864, 0, 4.261)"/></clipPath><clipPath id="c"><ellipse class="a" cx="4.238" cy="7.34" rx="4.238" ry="7.34" transform="translate(0 4.261) rotate(-30.185)"/></clipPath><clipPath id="f"><path class="a" d="M247.689,365.592l-6.87-3.966,6.87-3.966,6.87,3.966Z" transform="translate(-240.819 -357.66)"/></clipPath><clipPath id="g"><path class="a" d="M247.689,354.775l-6.87-3.966,6.87-3.966,6.87,3.966Z" transform="translate(-240.819 -346.842)"/></clipPath><clipPath id="h"><path class="a" d="M247.689,343.958l-6.87-3.966,6.87-3.966,6.87,3.966Z" transform="translate(-240.819 -336.025)"/></clipPath></defs><g transform="translate(-121.993 -68.527)"><g transform="translate(121.993 68.527)"><path class="b" d="M121.993,213.228l61.54,35.53,41.027-23.687-61.54-35.53Z" transform="translate(-121.993 -137.507)"/><path class="b" d="M121.993,196.751l61.54,35.53,41.027-23.687-61.54-35.53Z" transform="translate(-121.993 -128.115)"/><path class="c" d="M265.114,280.051v-.668L306.141,255.7v.668Z" transform="translate(-203.574 -175.216)"/><path class="c" d="M275.665,100,221.792,68.953a3.151,3.151,0,0,0-4.725,2.73V113.6L277.618,148.5l.365.968.682-.365V105.19A5.99,5.99,0,0,0,275.665,100Z" transform="translate(-176.186 -68.527)"/><path class="c" d="M183.533,264.35l-61.54-35.53v-.668l61.54,35.53Z" transform="translate(-121.993 -159.515)"/><path class="b" d="M277.078,149.949l-61.6-35.5V72.531a3.151,3.151,0,0,1,4.724-2.73l53.874,31.046a5.991,5.991,0,0,1,3,5.191Z" transform="translate(-175.282 -69.011)"/><path class="d" d="M277.813,149.59l-57.084-32.9V73.925l57.084,32.9Z" transform="translate(-178.274 -71.604)"/><g transform="translate(18.115 49.702)"><path class="e" d="M218.2,187.878l-3.89-2.25c-.172-.1-.129-.287.1-.418l1.691-.975a.815.815,0,0,1,.723-.056l3.89,2.251c.172.1.129.287-.1.418l-1.691.975A.813.813,0,0,1,218.2,187.878Z" transform="translate(-192.672 -184.118)"/><path class="e" d="M229.558,194.447l-3.89-2.251c-.173-.1-.129-.286.1-.417l1.691-.976a.815.815,0,0,1,.723-.055l3.89,2.25c.173.1.129.287-.1.418l-1.691.976A.816.816,0,0,1,229.558,194.447Z" transform="translate(-199.144 -187.862)"/><path class="e" d="M240.913,201.015l-3.89-2.251c-.173-.1-.129-.287.1-.418l1.691-.975a.813.813,0,0,1,.723-.055l3.89,2.25c.173.1.129.287-.1.418l-1.691.975A.815.815,0,0,1,240.913,201.015Z" transform="translate(-205.617 -191.606)"/><path class="e" d="M252.267,207.584l-3.89-2.251c-.173-.1-.129-.286.1-.417l1.691-.975a.814.814,0,0,1,.722-.056l3.89,2.251c.173.1.129.287-.1.417l-1.691.976A.815.815,0,0,1,252.267,207.584Z" transform="translate(-212.089 -195.351)"/><path class="e" d="M263.622,214.152l-3.89-2.251c-.173-.1-.129-.287.1-.417l1.691-.976a.813.813,0,0,1,.723-.055l3.89,2.25c.172.1.129.287-.1.418l-1.691.975A.815.815,0,0,1,263.622,214.152Z" transform="translate(-218.561 -199.094)"/><path class="e" d="M274.976,220.721l-3.89-2.25c-.173-.1-.129-.287.1-.418l1.691-.975a.815.815,0,0,1,.723-.056l3.89,2.251c.173.1.129.287-.1.418l-1.691.975A.813.813,0,0,1,274.976,220.721Z" transform="translate(-225.033 -202.839)"/><path class="e" d="M286.331,227.289l-3.89-2.251c-.173-.1-.129-.287.1-.417l1.691-.976a.815.815,0,0,1,.723-.055l3.89,2.251c.172.1.129.286-.1.417l-1.691.975A.814.814,0,0,1,286.331,227.289Z" transform="translate(-231.505 -206.583)"/><path class="e" d="M297.685,233.858l-3.89-2.25c-.172-.1-.129-.287.1-.418l1.691-.975a.814.814,0,0,1,.722-.056l3.89,2.251c.173.1.129.287-.1.418l-1.691.975A.813.813,0,0,1,297.685,233.858Z" transform="translate(-237.977 -210.327)"/><path class="e" d="M309.039,240.427l-3.89-2.25c-.173-.1-.129-.287.1-.418l1.691-.976a.816.816,0,0,1,.723-.055l3.89,2.251c.172.1.129.287-.1.418l-1.691.975A.815.815,0,0,1,309.039,240.427Z" transform="translate(-244.45 -214.071)"/><path class="e" d="M320.394,247l-3.89-2.251c-.172-.1-.129-.287.1-.418l1.692-.975a.812.812,0,0,1,.722-.055l3.89,2.25c.172.1.129.287-.1.418l-1.692.975A.814.814,0,0,1,320.394,247Z" transform="translate(-250.922 -217.815)"/><path class="e" d="M331.748,253.564l-3.89-2.25c-.172-.1-.129-.287.1-.418l1.691-.975a.815.815,0,0,1,.723-.056l3.89,2.251c.172.1.129.287-.1.418l-1.691.975A.813.813,0,0,1,331.748,253.564Z" transform="translate(-257.394 -221.56)"/><path class="e" d="M208.155,192.625l-3.739-2.163c-.214-.124-.16-.356.121-.518l2.852-1.645a1.011,1.011,0,0,1,.9-.069l3.739,2.163c.215.124.16.356-.121.518l-2.852,1.645A1.01,1.01,0,0,1,208.155,192.625Z" transform="translate(-187.015 -186.418)"/><path class="e" d="M219.509,199.194l-3.739-2.163c-.215-.124-.16-.356.12-.518l2.852-1.645a1.011,1.011,0,0,1,.9-.069l3.739,2.163c.214.124.16.356-.121.518l-2.852,1.645A1.012,1.012,0,0,1,219.509,199.194Z" transform="translate(-193.487 -190.163)"/><path class="e" d="M230.864,205.762l-3.739-2.163c-.214-.124-.16-.356.121-.518l2.852-1.645a1.01,1.01,0,0,1,.9-.069l3.739,2.163c.215.124.16.356-.121.518l-2.852,1.645A1.01,1.01,0,0,1,230.864,205.762Z" transform="translate(-199.96 -193.907)"/><path class="e" d="M242.218,212.331l-3.739-2.163c-.215-.124-.16-.356.121-.518L241.452,208a1.011,1.011,0,0,1,.9-.069l3.739,2.163c.214.124.16.356-.121.518l-2.852,1.645A1.011,1.011,0,0,1,242.218,212.331Z" transform="translate(-206.432 -197.651)"/><path class="e" d="M253.572,218.9l-3.739-2.163c-.214-.124-.16-.356.121-.518l2.852-1.645a1.01,1.01,0,0,1,.9-.069l3.739,2.163c.215.124.16.356-.121.518l-2.852,1.645A1.01,1.01,0,0,1,253.572,218.9Z" transform="translate(-212.904 -201.395)"/><path class="e" d="M264.927,225.468l-3.739-2.163c-.215-.124-.16-.356.121-.518l2.852-1.645a1.01,1.01,0,0,1,.9-.069l3.739,2.163c.214.124.16.356-.121.518l-2.852,1.645A1.013,1.013,0,0,1,264.927,225.468Z" transform="translate(-219.376 -205.139)"/><path class="e" d="M276.281,232.036l-3.739-2.163c-.214-.124-.16-.356.121-.518l2.852-1.645a1.012,1.012,0,0,1,.9-.069l3.739,2.163c.215.124.16.356-.121.518l-2.852,1.645A1.01,1.01,0,0,1,276.281,232.036Z" transform="translate(-225.848 -208.884)"/><path class="e" d="M287.636,238.605l-3.739-2.163c-.215-.124-.161-.356.121-.518l2.851-1.645a1.011,1.011,0,0,1,.9-.069l3.739,2.163c.214.124.16.356-.121.518l-2.852,1.645A1.012,1.012,0,0,1,287.636,238.605Z" transform="translate(-232.321 -212.628)"/><path class="e" d="M298.99,245.174l-3.739-2.163c-.215-.124-.16-.356.121-.518l2.852-1.645a1.01,1.01,0,0,1,.9-.069l3.739,2.163c.215.124.16.356-.121.518l-2.852,1.645A1.012,1.012,0,0,1,298.99,245.174Z" transform="translate(-238.793 -216.372)"/><path class="e" d="M310.345,251.742l-3.739-2.163c-.214-.124-.16-.356.121-.518l2.851-1.645a1.012,1.012,0,0,1,.9-.069l3.739,2.163c.214.124.16.356-.121.518l-2.851,1.645A1.011,1.011,0,0,1,310.345,251.742Z" transform="translate(-245.265 -220.116)"/><path class="e" d="M321.7,258.311l-3.739-2.163c-.215-.124-.16-.356.121-.518l2.852-1.645a1.01,1.01,0,0,1,.9-.069l3.739,2.163c.215.124.16.356-.121.518l-2.852,1.645A1.011,1.011,0,0,1,321.7,258.311Z" transform="translate(-251.737 -223.86)"/><path class="e" d="M198.114,198.416l-3.739-2.163c-.215-.124-.16-.356.121-.518l2.852-1.645a1.01,1.01,0,0,1,.9-.069l3.739,2.163c.214.124.16.356-.121.518l-2.852,1.645A1.011,1.011,0,0,1,198.114,198.416Z" transform="translate(-181.292 -189.72)"/><path class="e" d="M209.469,204.985l-3.739-2.163c-.214-.124-.16-.356.121-.518l2.852-1.645a1.011,1.011,0,0,1,.9-.069l3.739,2.163c.215.124.16.356-.121.518l-2.852,1.645A1.011,1.011,0,0,1,209.469,204.985Z" transform="translate(-187.764 -193.464)"/><path class="e" d="M220.823,211.553l-3.739-2.163c-.215-.124-.16-.356.121-.518l2.852-1.645a1.011,1.011,0,0,1,.9-.069l3.739,2.163c.214.124.16.356-.121.518l-2.852,1.645A1.01,1.01,0,0,1,220.823,211.553Z" transform="translate(-194.236 -197.208)"/><path class="e" d="M232.178,218.122l-3.739-2.163c-.214-.124-.16-.356.121-.518l2.852-1.645a1.01,1.01,0,0,1,.9-.069l3.739,2.163c.215.124.16.356-.121.518l-2.852,1.645A1.01,1.01,0,0,1,232.178,218.122Z" transform="translate(-200.709 -200.952)"/><path class="e" d="M243.532,224.691l-3.739-2.163c-.215-.124-.16-.356.121-.518l2.852-1.645a1.011,1.011,0,0,1,.9-.069l3.739,2.163c.214.124.16.356-.121.518l-2.852,1.645A1.011,1.011,0,0,1,243.532,224.691Z" transform="translate(-207.181 -204.696)"/><path class="e" d="M254.886,231.259l-3.739-2.163c-.214-.124-.16-.356.121-.518l2.852-1.645a1.01,1.01,0,0,1,.9-.069l3.739,2.163c.215.124.16.356-.121.518l-2.852,1.645A1.01,1.01,0,0,1,254.886,231.259Z" transform="translate(-213.653 -208.44)"/><path class="e" d="M266.241,237.828l-3.739-2.163c-.215-.124-.16-.356.121-.518l2.852-1.645a1.011,1.011,0,0,1,.9-.069l3.739,2.163c.214.124.16.356-.121.518l-2.852,1.645A1.012,1.012,0,0,1,266.241,237.828Z" transform="translate(-220.125 -212.184)"/><path class="e" d="M277.6,244.4l-3.739-2.163c-.214-.124-.16-.356.121-.518l2.852-1.645a1.01,1.01,0,0,1,.9-.069l3.739,2.163c.215.124.16.356-.121.518l-2.852,1.645A1.01,1.01,0,0,1,277.6,244.4Z" transform="translate(-226.597 -215.929)"/><path class="e" d="M288.95,250.965l-3.739-2.163c-.215-.124-.16-.356.121-.518l2.851-1.645a1.011,1.011,0,0,1,.9-.069l3.739,2.163c.214.124.16.356-.121.518l-2.852,1.645A1.012,1.012,0,0,1,288.95,250.965Z" transform="translate(-233.07 -219.673)"/><path class="e" d="M300.3,257.533l-3.739-2.163c-.215-.124-.16-.356.121-.518l2.852-1.645a1.011,1.011,0,0,1,.9-.069l3.739,2.163c.215.124.16.356-.121.518l-2.852,1.645A1.01,1.01,0,0,1,300.3,257.533Z" transform="translate(-239.542 -223.417)"/><path class="e" d="M311.659,264.1l-3.739-2.163c-.214-.124-.16-.356.121-.518l2.851-1.645a1.011,1.011,0,0,1,.9-.069l3.739,2.163c.214.124.16.356-.121.518l-2.851,1.645A1.011,1.011,0,0,1,311.659,264.1Z" transform="translate(-246.014 -227.161)"/><path class="e" d="M188.074,204.207l-3.739-2.163c-.214-.124-.16-.356.121-.518l2.852-1.645a1.011,1.011,0,0,1,.9-.069l3.739,2.163c.215.124.16.356-.121.518l-2.851,1.645A1.011,1.011,0,0,1,188.074,204.207Z" transform="translate(-175.569 -193.021)"/><path class="e" d="M199.428,210.776l-3.739-2.163c-.215-.124-.16-.356.121-.518l2.852-1.645a1.01,1.01,0,0,1,.9-.069l3.739,2.163c.215.124.16.356-.121.518l-2.852,1.645A1.011,1.011,0,0,1,199.428,210.776Z" transform="translate(-182.041 -196.765)"/><path class="e" d="M210.783,217.344l-3.739-2.163c-.214-.124-.16-.356.121-.518l2.852-1.645a1.012,1.012,0,0,1,.9-.069l3.739,2.163c.215.124.16.356-.121.518l-2.852,1.645A1.01,1.01,0,0,1,210.783,217.344Z" transform="translate(-188.513 -200.509)"/><path class="e" d="M222.137,223.913,218.4,221.75c-.215-.124-.16-.356.121-.518l2.852-1.645a1.01,1.01,0,0,1,.9-.069l3.739,2.163c.214.124.16.356-.121.518l-2.852,1.645A1.01,1.01,0,0,1,222.137,223.913Z" transform="translate(-194.985 -204.253)"/><path class="e" d="M233.492,230.482l-3.739-2.163c-.214-.124-.16-.356.121-.518l2.852-1.645a1.01,1.01,0,0,1,.9-.069l3.739,2.163c.215.124.16.356-.121.518l-2.852,1.645A1.011,1.011,0,0,1,233.492,230.482Z" transform="translate(-201.458 -207.997)"/><path class="e" d="M244.846,237.05l-3.739-2.163c-.215-.124-.16-.356.121-.518l2.852-1.645a1.011,1.011,0,0,1,.9-.069l3.739,2.163c.214.124.16.356-.121.518l-2.852,1.645A1.01,1.01,0,0,1,244.846,237.05Z" transform="translate(-207.93 -211.742)"/><path class="e" d="M256.2,243.619l-3.739-2.163c-.214-.124-.16-.356.121-.518l2.852-1.645a1.01,1.01,0,0,1,.9-.069l3.739,2.163c.215.124.16.356-.121.518L257.1,243.55A1.01,1.01,0,0,1,256.2,243.619Z" transform="translate(-214.402 -215.486)"/><path class="e" d="M267.555,250.188l-3.739-2.163c-.215-.124-.16-.356.121-.518l2.852-1.645a1.011,1.011,0,0,1,.9-.069l3.739,2.163c.214.124.16.356-.121.518l-2.852,1.645A1.012,1.012,0,0,1,267.555,250.188Z" transform="translate(-220.874 -219.23)"/><path class="e" d="M278.909,256.756l-3.739-2.163c-.214-.124-.16-.356.121-.518l2.852-1.645a1.01,1.01,0,0,1,.9-.069l3.739,2.163c.215.124.16.356-.121.519l-2.852,1.645A1.01,1.01,0,0,1,278.909,256.756Z" transform="translate(-227.346 -222.974)"/><path class="e" d="M290.264,263.325l-3.739-2.163c-.215-.124-.16-.356.121-.518L289.5,259a1.011,1.011,0,0,1,.9-.069l3.739,2.163c.214.124.16.356-.121.518l-2.852,1.645A1.013,1.013,0,0,1,290.264,263.325Z" transform="translate(-233.819 -226.718)"/><path class="e" d="M301.618,269.893l-3.739-2.163c-.215-.124-.16-.356.121-.518l2.852-1.645a1.01,1.01,0,0,1,.9-.069l3.739,2.163c.215.124.16.356-.121.518l-2.852,1.645A1.01,1.01,0,0,1,301.618,269.893Z" transform="translate(-240.291 -230.462)"/><path class="e" d="M178.033,210l-3.739-2.163c-.215-.124-.16-.356.121-.518l2.852-1.645a1.012,1.012,0,0,1,.9-.069l3.739,2.163c.215.124.16.356-.121.518l-2.852,1.645A1.011,1.011,0,0,1,178.033,210Z" transform="translate(-169.846 -196.322)"/><path class="e" d="M189.388,216.567l-3.739-2.163c-.214-.124-.16-.356.121-.518l2.852-1.645a1.011,1.011,0,0,1,.9-.069l3.739,2.163c.214.124.16.356-.121.518l-2.851,1.645A1.011,1.011,0,0,1,189.388,216.567Z" transform="translate(-176.318 -200.066)"/><path class="e" d="M200.742,223.136,197,220.972c-.215-.124-.16-.356.121-.518l2.852-1.645a1.011,1.011,0,0,1,.9-.069l3.739,2.163c.215.124.16.356-.121.518l-2.852,1.645A1.011,1.011,0,0,1,200.742,223.136Z" transform="translate(-182.79 -203.81)"/><path class="e" d="M212.1,229.7l-3.739-2.163c-.214-.124-.16-.356.121-.518l2.852-1.645a1.011,1.011,0,0,1,.9-.069l3.739,2.163c.215.124.16.356-.121.518l-2.852,1.645A1.01,1.01,0,0,1,212.1,229.7Z" transform="translate(-189.262 -207.554)"/><path class="e" d="M223.451,236.273l-3.739-2.163c-.215-.124-.16-.356.121-.518l2.852-1.645a1.01,1.01,0,0,1,.9-.069l3.739,2.163c.214.124.16.356-.121.518l-2.852,1.645A1.011,1.011,0,0,1,223.451,236.273Z" transform="translate(-195.734 -211.298)"/><path class="e" d="M234.806,242.841l-3.739-2.163c-.214-.124-.16-.356.121-.518l2.852-1.645a1.012,1.012,0,0,1,.9-.069l3.739,2.163c.215.124.16.356-.121.518l-2.852,1.645A1.01,1.01,0,0,1,234.806,242.841Z" transform="translate(-202.207 -215.043)"/><path class="e" d="M246.16,249.41l-3.739-2.163c-.215-.124-.16-.356.121-.518l2.852-1.645a1.01,1.01,0,0,1,.9-.069l3.739,2.163c.214.124.16.356-.121.518l-2.852,1.645A1.01,1.01,0,0,1,246.16,249.41Z" transform="translate(-208.679 -218.787)"/><path class="e" d="M257.515,255.979l-3.739-2.163c-.214-.124-.16-.356.121-.518l2.852-1.645a1.01,1.01,0,0,1,.9-.069l3.739,2.163c.215.124.16.356-.121.518l-2.852,1.645A1.011,1.011,0,0,1,257.515,255.979Z" transform="translate(-215.151 -222.531)"/><path class="e" d="M268.869,262.547l-3.739-2.163c-.215-.124-.16-.356.121-.518l2.852-1.645a1.011,1.011,0,0,1,.9-.069l3.739,2.163c.214.124.16.356-.121.518l-2.852,1.645A1.01,1.01,0,0,1,268.869,262.547Z" transform="translate(-221.623 -226.275)"/><path class="e" d="M280.223,269.116l-3.739-2.163c-.214-.124-.16-.356.121-.518l2.852-1.645a1.01,1.01,0,0,1,.9-.069l3.739,2.163c.215.124.16.356-.121.518l-2.852,1.645A1.01,1.01,0,0,1,280.223,269.116Z" transform="translate(-228.095 -230.019)"/><path class="e" d="M291.578,275.685l-3.739-2.163c-.215-.124-.16-.356.121-.518l2.852-1.645a1.011,1.011,0,0,1,.9-.069l3.739,2.163c.214.124.16.356-.121.518l-2.852,1.645A1.012,1.012,0,0,1,291.578,275.685Z" transform="translate(-234.568 -233.763)"/><path class="e" d="M167.993,215.79l-3.739-2.163c-.215-.124-.16-.356.121-.518l2.851-1.645a1.012,1.012,0,0,1,.9-.069l3.739,2.163c.214.124.16.356-.121.518l-2.852,1.645A1.012,1.012,0,0,1,167.993,215.79Z" transform="translate(-164.123 -199.623)"/><path class="e" d="M179.347,222.358l-3.739-2.163c-.215-.124-.16-.356.121-.518l2.852-1.645a1.013,1.013,0,0,1,.9-.069l3.739,2.163c.215.124.16.356-.121.518l-2.852,1.645A1.01,1.01,0,0,1,179.347,222.358Z" transform="translate(-170.595 -203.367)"/><path class="e" d="M190.7,228.927l-3.739-2.163c-.214-.124-.16-.356.121-.518l2.851-1.645a1.012,1.012,0,0,1,.9-.069l3.739,2.163c.214.124.16.356-.121.518l-2.851,1.645A1.011,1.011,0,0,1,190.7,228.927Z" transform="translate(-177.067 -207.111)"/><path class="e" d="M226.46,249.613,198.438,233.4c-.25-.144-.187-.415.141-.6l2.683-1.548a1.177,1.177,0,0,1,1.046-.08l28.021,16.211c.25.145.187.415-.141.6l-2.683,1.548A1.18,1.18,0,0,1,226.46,249.613Z" transform="translate(-183.596 -210.888)"/><path class="e" d="M270.183,274.907l-3.739-2.163c-.215-.124-.16-.356.121-.518l2.852-1.645a1.011,1.011,0,0,1,.9-.069l3.739,2.163c.214.124.16.356-.121.518l-2.852,1.645A1.01,1.01,0,0,1,270.183,274.907Z" transform="translate(-222.372 -233.32)"/><path class="e" d="M281.537,281.476l-3.739-2.163c-.214-.124-.16-.356.121-.518l2.852-1.645a1.011,1.011,0,0,1,.9-.069l3.739,2.163c.215.124.16.356-.121.518l-2.852,1.645A1.011,1.011,0,0,1,281.537,281.476Z" transform="translate(-228.844 -237.064)"/></g><g transform="translate(18.115 49.578)"><path class="c" d="M218.2,187.588l-3.89-2.25c-.172-.1-.129-.287.1-.418l1.691-.975a.815.815,0,0,1,.723-.056l3.89,2.251c.172.1.129.287-.1.418l-1.691.975A.813.813,0,0,1,218.2,187.588Z" transform="translate(-192.672 -183.828)"/><path class="c" d="M229.558,194.157l-3.89-2.251c-.173-.1-.129-.287.1-.418l1.691-.975a.815.815,0,0,1,.723-.055l3.89,2.25c.173.1.129.287-.1.418l-1.691.976A.816.816,0,0,1,229.558,194.157Z" transform="translate(-199.144 -187.572)"/><path class="c" d="M240.913,200.725l-3.89-2.251c-.173-.1-.129-.287.1-.418l1.691-.975a.813.813,0,0,1,.723-.055l3.89,2.25c.173.1.129.287-.1.418l-1.691.975A.815.815,0,0,1,240.913,200.725Z" transform="translate(-205.617 -191.316)"/><path class="c" d="M252.267,207.294l-3.89-2.251c-.173-.1-.129-.286.1-.417l1.691-.975a.814.814,0,0,1,.722-.056l3.89,2.251c.173.1.129.287-.1.417l-1.691.976A.815.815,0,0,1,252.267,207.294Z" transform="translate(-212.089 -195.061)"/><path class="c" d="M263.622,213.862l-3.89-2.251c-.173-.1-.129-.287.1-.418l1.691-.975a.813.813,0,0,1,.723-.055l3.89,2.25c.172.1.129.287-.1.418l-1.691.975A.815.815,0,0,1,263.622,213.862Z" transform="translate(-218.561 -198.804)"/><path class="c" d="M274.976,220.431l-3.89-2.25c-.173-.1-.129-.287.1-.418l1.691-.975a.815.815,0,0,1,.723-.056l3.89,2.251c.173.1.129.287-.1.417l-1.691.976A.813.813,0,0,1,274.976,220.431Z" transform="translate(-225.033 -202.549)"/><path class="c" d="M286.331,227l-3.89-2.251c-.173-.1-.129-.287.1-.417l1.691-.976a.815.815,0,0,1,.723-.055l3.89,2.251c.172.1.129.286-.1.417l-1.691.975A.814.814,0,0,1,286.331,227Z" transform="translate(-231.505 -206.293)"/><path class="c" d="M297.685,233.568l-3.89-2.25c-.172-.1-.129-.287.1-.418l1.691-.975a.814.814,0,0,1,.722-.056l3.89,2.251c.173.1.129.287-.1.418l-1.691.975A.813.813,0,0,1,297.685,233.568Z" transform="translate(-237.977 -210.037)"/><path class="c" d="M309.039,240.137l-3.89-2.25c-.173-.1-.129-.287.1-.418l1.691-.976a.816.816,0,0,1,.723-.055l3.89,2.251c.172.1.129.286-.1.417l-1.691.976A.815.815,0,0,1,309.039,240.137Z" transform="translate(-244.45 -213.781)"/><path class="c" d="M320.394,246.705l-3.89-2.251c-.172-.1-.129-.287.1-.418l1.692-.975a.812.812,0,0,1,.722-.055l3.89,2.25c.172.1.129.287-.1.418l-1.692.975A.814.814,0,0,1,320.394,246.705Z" transform="translate(-250.922 -217.525)"/><path class="c" d="M331.748,253.274l-3.89-2.25c-.172-.1-.129-.287.1-.418l1.691-.975a.815.815,0,0,1,.723-.056l3.89,2.251c.172.1.129.287-.1.418l-1.691.975A.813.813,0,0,1,331.748,253.274Z" transform="translate(-257.394 -221.27)"/><path class="c" d="M208.155,192.335l-3.739-2.163c-.214-.124-.16-.356.121-.518l2.852-1.645a1.011,1.011,0,0,1,.9-.069l3.739,2.163c.215.124.16.356-.121.518l-2.852,1.645A1.01,1.01,0,0,1,208.155,192.335Z" transform="translate(-187.015 -186.128)"/><path class="c" d="M219.509,198.9l-3.739-2.163c-.215-.124-.16-.356.12-.518l2.852-1.645a1.011,1.011,0,0,1,.9-.069l3.739,2.163c.214.124.16.356-.121.518l-2.852,1.645A1.012,1.012,0,0,1,219.509,198.9Z" transform="translate(-193.487 -189.873)"/><path class="c" d="M230.864,205.472l-3.739-2.163c-.214-.124-.16-.356.121-.519l2.852-1.645a1.01,1.01,0,0,1,.9-.069l3.739,2.163c.215.124.16.356-.121.518l-2.852,1.645A1.01,1.01,0,0,1,230.864,205.472Z" transform="translate(-199.96 -193.617)"/><path class="c" d="M242.218,212.041l-3.739-2.163c-.215-.124-.16-.356.121-.518l2.852-1.645a1.011,1.011,0,0,1,.9-.069l3.739,2.163c.214.124.16.356-.121.518l-2.852,1.645A1.011,1.011,0,0,1,242.218,212.041Z" transform="translate(-206.432 -197.361)"/><path class="c" d="M253.572,218.609l-3.739-2.163c-.214-.124-.16-.356.121-.518l2.852-1.645a1.01,1.01,0,0,1,.9-.069l3.739,2.163c.215.124.16.356-.121.519l-2.852,1.645A1.01,1.01,0,0,1,253.572,218.609Z" transform="translate(-212.904 -201.105)"/><path class="c" d="M264.927,225.178l-3.739-2.163c-.215-.124-.16-.356.121-.518l2.852-1.645a1.01,1.01,0,0,1,.9-.069l3.739,2.163c.214.124.16.356-.121.518l-2.852,1.645A1.013,1.013,0,0,1,264.927,225.178Z" transform="translate(-219.376 -204.849)"/><path class="c" d="M276.281,231.746l-3.739-2.163c-.214-.124-.16-.356.121-.518l2.852-1.645a1.012,1.012,0,0,1,.9-.069l3.739,2.163c.215.124.16.356-.121.518l-2.852,1.645A1.01,1.01,0,0,1,276.281,231.746Z" transform="translate(-225.848 -208.594)"/><path class="c" d="M287.636,238.315l-3.739-2.163c-.215-.124-.161-.356.121-.518l2.851-1.645a1.011,1.011,0,0,1,.9-.069l3.739,2.163c.214.124.16.356-.121.518l-2.852,1.645A1.012,1.012,0,0,1,287.636,238.315Z" transform="translate(-232.321 -212.338)"/><path class="c" d="M298.99,244.884l-3.739-2.163c-.215-.124-.16-.356.121-.518l2.852-1.645a1.01,1.01,0,0,1,.9-.069l3.739,2.163c.215.124.16.356-.121.518l-2.852,1.645A1.012,1.012,0,0,1,298.99,244.884Z" transform="translate(-238.793 -216.082)"/><path class="c" d="M310.345,251.452l-3.739-2.163c-.214-.124-.16-.356.121-.518l2.851-1.645a1.012,1.012,0,0,1,.9-.069l3.739,2.163c.214.124.16.356-.121.518l-2.851,1.645A1.011,1.011,0,0,1,310.345,251.452Z" transform="translate(-245.265 -219.826)"/><path class="c" d="M321.7,258.021l-3.739-2.163c-.215-.124-.16-.356.121-.518l2.852-1.645a1.01,1.01,0,0,1,.9-.069l3.739,2.163c.215.124.16.356-.121.518l-2.852,1.645A1.011,1.011,0,0,1,321.7,258.021Z" transform="translate(-251.737 -223.57)"/><path class="c" d="M198.114,198.126l-3.739-2.163c-.215-.124-.16-.356.121-.518l2.852-1.645a1.01,1.01,0,0,1,.9-.069l3.739,2.163c.214.124.16.356-.121.518l-2.852,1.645A1.011,1.011,0,0,1,198.114,198.126Z" transform="translate(-181.292 -189.43)"/><path class="c" d="M209.469,204.695l-3.739-2.163c-.214-.124-.16-.356.121-.518l2.852-1.645a1.011,1.011,0,0,1,.9-.069l3.739,2.163c.215.124.16.356-.121.518l-2.852,1.645A1.011,1.011,0,0,1,209.469,204.695Z" transform="translate(-187.764 -193.174)"/><path class="c" d="M220.823,211.263l-3.739-2.163c-.215-.124-.16-.356.121-.518l2.852-1.645a1.011,1.011,0,0,1,.9-.069l3.739,2.163c.214.124.16.356-.121.518l-2.852,1.645A1.01,1.01,0,0,1,220.823,211.263Z" transform="translate(-194.236 -196.918)"/><path class="c" d="M232.178,217.832l-3.739-2.163c-.214-.124-.16-.356.121-.518l2.852-1.645a1.01,1.01,0,0,1,.9-.069l3.739,2.163c.215.124.16.356-.121.518l-2.852,1.645A1.01,1.01,0,0,1,232.178,217.832Z" transform="translate(-200.709 -200.662)"/><path class="c" d="M243.532,224.4l-3.739-2.163c-.215-.124-.16-.356.121-.518l2.852-1.645a1.011,1.011,0,0,1,.9-.069l3.739,2.163c.214.124.16.356-.121.518l-2.852,1.645A1.011,1.011,0,0,1,243.532,224.4Z" transform="translate(-207.181 -204.406)"/><path class="c" d="M254.886,230.969l-3.739-2.163c-.214-.124-.16-.356.121-.519l2.852-1.645a1.01,1.01,0,0,1,.9-.069l3.739,2.163c.215.124.16.356-.121.518l-2.852,1.645A1.01,1.01,0,0,1,254.886,230.969Z" transform="translate(-213.653 -208.15)"/><path class="c" d="M266.241,237.538l-3.739-2.163c-.215-.124-.16-.356.121-.518l2.852-1.645a1.011,1.011,0,0,1,.9-.069l3.739,2.163c.214.124.16.356-.121.518l-2.852,1.645A1.012,1.012,0,0,1,266.241,237.538Z" transform="translate(-220.125 -211.895)"/><path class="c" d="M277.6,244.106l-3.739-2.163c-.214-.124-.16-.356.121-.518l2.852-1.645a1.01,1.01,0,0,1,.9-.069l3.739,2.163c.215.124.16.356-.121.519l-2.852,1.645A1.01,1.01,0,0,1,277.6,244.106Z" transform="translate(-226.597 -215.639)"/><path class="c" d="M288.95,250.675l-3.739-2.163c-.215-.124-.16-.356.121-.518l2.851-1.645a1.011,1.011,0,0,1,.9-.069l3.739,2.163c.214.124.16.356-.121.518l-2.852,1.645A1.012,1.012,0,0,1,288.95,250.675Z" transform="translate(-233.07 -219.383)"/><path class="c" d="M300.3,257.243l-3.739-2.163c-.215-.124-.16-.356.121-.518l2.852-1.645a1.011,1.011,0,0,1,.9-.069l3.739,2.163c.215.124.16.356-.121.518l-2.852,1.645A1.01,1.01,0,0,1,300.3,257.243Z" transform="translate(-239.542 -223.127)"/><path class="c" d="M311.659,263.812l-3.739-2.163c-.214-.124-.16-.356.121-.518l2.851-1.645a1.011,1.011,0,0,1,.9-.069l3.739,2.163c.214.124.16.356-.121.518l-2.851,1.645A1.011,1.011,0,0,1,311.659,263.812Z" transform="translate(-246.014 -226.871)"/><path class="c" d="M188.074,203.917l-3.739-2.163c-.214-.124-.16-.356.121-.518l2.852-1.645a1.011,1.011,0,0,1,.9-.069l3.739,2.163c.215.124.16.356-.121.519l-2.851,1.645A1.011,1.011,0,0,1,188.074,203.917Z" transform="translate(-175.569 -192.731)"/><path class="c" d="M199.428,210.486l-3.739-2.163c-.215-.124-.16-.356.121-.518l2.852-1.645a1.01,1.01,0,0,1,.9-.069l3.739,2.163c.215.124.16.356-.121.518l-2.852,1.645A1.011,1.011,0,0,1,199.428,210.486Z" transform="translate(-182.041 -196.475)"/><path class="c" d="M210.783,217.054l-3.739-2.163c-.214-.124-.16-.356.121-.518l2.852-1.645a1.012,1.012,0,0,1,.9-.069l3.739,2.163c.215.124.16.356-.121.518l-2.852,1.645A1.01,1.01,0,0,1,210.783,217.054Z" transform="translate(-188.513 -200.219)"/><path class="c" d="M222.137,223.623,218.4,221.46c-.215-.124-.16-.356.121-.518l2.852-1.645a1.01,1.01,0,0,1,.9-.069l3.739,2.163c.214.124.16.356-.121.518l-2.852,1.645A1.01,1.01,0,0,1,222.137,223.623Z" transform="translate(-194.985 -203.963)"/><path class="c" d="M233.492,230.192l-3.739-2.163c-.214-.124-.16-.356.121-.518l2.852-1.645a1.01,1.01,0,0,1,.9-.069l3.739,2.163c.215.124.16.356-.121.518l-2.852,1.645A1.011,1.011,0,0,1,233.492,230.192Z" transform="translate(-201.458 -207.707)"/><path class="c" d="M244.846,236.76l-3.739-2.163c-.215-.124-.16-.356.121-.518l2.852-1.645a1.011,1.011,0,0,1,.9-.069l3.739,2.163c.214.124.16.356-.121.518l-2.852,1.645A1.01,1.01,0,0,1,244.846,236.76Z" transform="translate(-207.93 -211.452)"/><path class="c" d="M256.2,243.329l-3.739-2.163c-.214-.124-.16-.356.121-.518L255.434,239a1.01,1.01,0,0,1,.9-.069l3.739,2.163c.215.124.16.356-.121.518L257.1,243.26A1.01,1.01,0,0,1,256.2,243.329Z" transform="translate(-214.402 -215.196)"/><path class="c" d="M267.555,249.9l-3.739-2.163c-.215-.124-.16-.356.121-.518l2.852-1.645a1.011,1.011,0,0,1,.9-.069l3.739,2.163c.214.124.16.356-.121.518l-2.852,1.645A1.012,1.012,0,0,1,267.555,249.9Z" transform="translate(-220.874 -218.94)"/><path class="c" d="M278.909,256.466,275.17,254.3c-.214-.124-.16-.356.121-.519l2.852-1.645a1.01,1.01,0,0,1,.9-.069l3.739,2.163c.215.124.16.356-.121.518l-2.852,1.645A1.01,1.01,0,0,1,278.909,256.466Z" transform="translate(-227.346 -222.684)"/><path class="c" d="M290.264,263.035l-3.739-2.163c-.215-.124-.16-.356.121-.518l2.852-1.645a1.011,1.011,0,0,1,.9-.069l3.739,2.163c.214.124.16.356-.121.518l-2.852,1.645A1.012,1.012,0,0,1,290.264,263.035Z" transform="translate(-233.819 -226.428)"/><path class="c" d="M301.618,269.6l-3.739-2.163c-.215-.124-.16-.356.121-.518l2.852-1.645a1.01,1.01,0,0,1,.9-.069l3.739,2.163c.215.124.16.356-.121.519l-2.852,1.645A1.01,1.01,0,0,1,301.618,269.6Z" transform="translate(-240.291 -230.172)"/><path class="c" d="M178.033,209.709l-3.739-2.163c-.215-.124-.16-.356.121-.518l2.852-1.645a1.012,1.012,0,0,1,.9-.069l3.739,2.163c.215.124.16.356-.121.518l-2.852,1.645A1.011,1.011,0,0,1,178.033,209.709Z" transform="translate(-169.846 -196.032)"/><path class="c" d="M189.388,216.277l-3.739-2.163c-.214-.124-.16-.356.121-.519l2.852-1.645a1.011,1.011,0,0,1,.9-.069l3.739,2.163c.214.124.16.356-.121.518l-2.851,1.645A1.011,1.011,0,0,1,189.388,216.277Z" transform="translate(-176.318 -199.776)"/><path class="c" d="M200.742,222.846,197,220.682c-.215-.124-.16-.356.121-.518l2.852-1.645a1.011,1.011,0,0,1,.9-.069l3.739,2.163c.215.124.16.356-.121.518l-2.852,1.645A1.011,1.011,0,0,1,200.742,222.846Z" transform="translate(-182.79 -203.52)"/><path class="c" d="M212.1,229.414l-3.739-2.163c-.214-.124-.16-.356.121-.518l2.852-1.645a1.011,1.011,0,0,1,.9-.069l3.739,2.163c.215.124.16.356-.121.519l-2.852,1.645A1.01,1.01,0,0,1,212.1,229.414Z" transform="translate(-189.262 -207.264)"/><path class="c" d="M223.451,235.983l-3.739-2.163c-.215-.124-.16-.356.121-.518l2.852-1.645a1.01,1.01,0,0,1,.9-.069l3.739,2.163c.214.124.16.356-.121.518l-2.852,1.645A1.011,1.011,0,0,1,223.451,235.983Z" transform="translate(-195.734 -211.008)"/><path class="c" d="M234.806,242.551l-3.739-2.163c-.214-.124-.16-.356.121-.518l2.852-1.645a1.012,1.012,0,0,1,.9-.069l3.739,2.163c.215.124.16.356-.121.518l-2.852,1.645A1.01,1.01,0,0,1,234.806,242.551Z" transform="translate(-202.207 -214.753)"/><path class="c" d="M246.16,249.12l-3.739-2.163c-.215-.124-.16-.356.121-.518l2.852-1.645a1.01,1.01,0,0,1,.9-.069l3.739,2.163c.214.124.16.356-.121.518l-2.852,1.645A1.01,1.01,0,0,1,246.16,249.12Z" transform="translate(-208.679 -218.497)"/><path class="c" d="M257.515,255.689l-3.739-2.163c-.214-.124-.16-.356.121-.518l2.852-1.645a1.01,1.01,0,0,1,.9-.069l3.739,2.163c.215.124.16.356-.121.518l-2.852,1.645A1.011,1.011,0,0,1,257.515,255.689Z" transform="translate(-215.151 -222.241)"/><path class="c" d="M268.869,262.257l-3.739-2.163c-.215-.124-.16-.356.121-.518l2.852-1.645a1.011,1.011,0,0,1,.9-.069l3.739,2.163c.214.124.16.356-.121.518l-2.852,1.645A1.01,1.01,0,0,1,268.869,262.257Z" transform="translate(-221.623 -225.985)"/><path class="c" d="M280.223,268.826l-3.739-2.163c-.214-.124-.16-.356.121-.518l2.852-1.645a1.01,1.01,0,0,1,.9-.069l3.739,2.163c.215.124.16.356-.121.518l-2.852,1.645A1.01,1.01,0,0,1,280.223,268.826Z" transform="translate(-228.095 -229.729)"/><path class="c" d="M291.578,275.395l-3.739-2.163c-.215-.124-.16-.356.121-.518l2.852-1.645a1.011,1.011,0,0,1,.9-.069l3.739,2.163c.214.124.16.356-.121.518l-2.852,1.645A1.012,1.012,0,0,1,291.578,275.395Z" transform="translate(-234.568 -233.473)"/><path class="c" d="M167.993,215.5l-3.739-2.163c-.215-.124-.16-.356.121-.518l2.851-1.645a1.012,1.012,0,0,1,.9-.069l3.739,2.163c.214.124.16.356-.121.518l-2.852,1.645A1.012,1.012,0,0,1,167.993,215.5Z" transform="translate(-164.123 -199.333)"/><path class="c" d="M179.347,222.068l-3.739-2.163c-.215-.124-.16-.356.121-.518l2.852-1.645a1.013,1.013,0,0,1,.9-.069l3.739,2.163c.215.124.16.356-.121.518L180.244,222A1.01,1.01,0,0,1,179.347,222.068Z" transform="translate(-170.595 -203.077)"/><path class="c" d="M190.7,228.637l-3.739-2.163c-.214-.124-.16-.356.121-.518l2.851-1.645a1.012,1.012,0,0,1,.9-.069l3.739,2.163c.214.124.16.356-.121.518l-2.851,1.645A1.011,1.011,0,0,1,190.7,228.637Z" transform="translate(-177.067 -206.821)"/><path class="c" d="M226.46,249.323l-28.021-16.211c-.25-.145-.187-.415.141-.6l2.683-1.548a1.177,1.177,0,0,1,1.046-.08l28.021,16.211c.25.144.187.415-.141.6l-2.683,1.548A1.18,1.18,0,0,1,226.46,249.323Z" transform="translate(-183.596 -210.598)"/><path class="c" d="M270.183,274.617l-3.739-2.163c-.215-.124-.16-.356.121-.518l2.852-1.645a1.011,1.011,0,0,1,.9-.069l3.739,2.163c.214.124.16.356-.121.518l-2.852,1.645A1.01,1.01,0,0,1,270.183,274.617Z" transform="translate(-222.372 -233.03)"/><path class="c" d="M281.537,281.186l-3.739-2.163c-.214-.124-.16-.356.121-.518l2.852-1.645a1.011,1.011,0,0,1,.9-.069l3.739,2.163c.215.124.16.356-.121.518l-2.852,1.645A1.011,1.011,0,0,1,281.537,281.186Z" transform="translate(-228.844 -236.774)"/></g></g><g transform="translate(123.437 112.383)"><path class="f" d="M140.882,323.646s-.619,2.078.993,2.524,1.891-.454,2.465-.749,4.168-2.163,4.842-3.011-1.366-2.142-4.516-.14Z" transform="translate(-134.137 -256.415)"/><path class="f" d="M125.547,315.179s-.762,1.909.721,2.468,2.025-.954,2.466-1.234a19.918,19.918,0,0,0,2.909-2.159c.709-.743-.356-2.366-3.5-.746Z" transform="translate(-125.352 -251.629)"/><path class="g" d="M127,247.013s-.435,12.981-.31,15.464c-1.3,3.042-1.446,12.181-1.1,15.092,0,.459,3.517.534,3.517-1.093a111.351,111.351,0,0,1,1.79-11.847c.382-1.283,1.665-5.5,1.665-5.5V247.013l-4.139-.615Z" transform="translate(-125.397 -213.771)"/><path class="g" d="M156.93,230.7a3.649,3.649,0,0,1-4.429-1.662c-1.889-2.767,1.614-2.283,1.614-2.283l2.421,1.435Z" transform="translate(-140.508 -202.555)"/><path class="c" d="M140.07,279.925c.038.53,4.17,1.248,4.17-.617a137.642,137.642,0,0,1,.759-13.85c.554-3.523,2.028-9.741,1.488-13.838s-.62-5.709-.7-6.734h-6.065s.673,17.505.673,19.119S139.873,277.19,140.07,279.925Z" transform="translate(-133.541 -212.91)"/><path class="c" d="M132.936,198.217a3.746,3.746,0,0,0-3.485-.517c-1.762.6-3.062,2.645-3.062,5.968s1.8,4.35,1.8,9.241-1.775,6.084-1.49,9.768,11.247,5.153,12.768,3.1c1.149-1.925-1.222-10.616-.9-13.285s1.722-8.6,1.072-10.224C139.193,201.159,135.729,198.73,132.936,198.217Z" transform="translate(-125.942 -185.89)"/><path class="g" d="M153.639,216.894c1.4,2.9,2.532,3.043,3.092,2.855.838-.282,1.229-1.351.718-3.648s-2.2-9.483-4.64-8.5C150.3,208.624,152.235,213.994,153.639,216.894Z" transform="translate(-140.309 -191.606)"/><g transform="translate(4.131)"><path class="h" d="M138.511,185.612v2.131c0,.683,1.921,1.546,3.6.766v-1.8a6.585,6.585,0,0,0,2.318,0c.414-.269.786-6.243-.352-6.939-1.862-1.441-6.518-.833-6.518,2.056C137.559,182.735,138.511,183.853,138.511,185.612Z" transform="translate(-136.441 -175.365)"/><path class="i" d="M135.756,176.928c.555.645,3.881.034,5.122-.691s3.932-2.816,2.794-4.864-1.685.187-3.559.6S132.972,173.689,135.756,176.928Z" transform="translate(-134.96 -170.52)"/><path class="i" d="M135.62,182.747c-.283,1.385,1.224,5.108,1.848,5.108,1.345-.019,2.524-2.146,3.6-2.531s2.049-2.716,1.149-3.248S135.62,182.747,135.62,182.747Z" transform="translate(-135.316 -177.03)"/><path class="j" d="M142.527,200.912c.059.324-1.563,1.781-4.17.627s-1.111-1.994-1.111-1.994l2.112,1.129,1.49.051Z" transform="translate(-136.019 -187.065)"/><path class="g" d="M138.511,198.745s.59,1.494,3.6.77a1.319,1.319,0,0,1,.838.941c-.776,1.066-4.9.683-5.39-1.231A1.087,1.087,0,0,1,138.511,198.745Z" transform="translate(-136.441 -186.608)"/><path class="h" d="M148.4,189.225c-.331-.2-.956-1.1-.326-1.431a.732.732,0,0,1,.931.531" transform="translate(-142.278 -180.34)"/></g></g><g transform="translate(153.109 77.158)"><g transform="translate(0 0)"><path class="k" d="M212.258,130.177V99.512l-17.9-10.335v30.666Z" transform="translate(-194.358 -88.928)"/><path class="c" d="M235.987,143.548l.427-.249V112.633l-.427.249Z" transform="translate(-218.087 -102.299)"/><path class="b" d="M212.685,98.933,194.784,88.6l-.427.249,17.9,10.335Z" transform="translate(-194.358 -88.598)"/><g transform="translate(0.789 2.289)"><path class="l" d="M196.193,121.55l15.946,9.207V103.128l-15.946-9.207Z" transform="translate(-196.193 -93.921)"/><ellipse class="m" cx="4.238" cy="7.34" rx="4.238" ry="7.34" transform="matrix(0.864, -0.503, 0.503, 0.864, 0.619, 9.381)"/><g transform="translate(0.619 5.12)"><g class="n"><g transform="translate(4.327 3.459)"><path class="o" d="M207.7,131.928l6.054,3.5V133.56a3.258,3.258,0,0,0-1.477-2.551l-3.1-1.79c-.816-.471-1.477-.092-1.477.846Z" transform="translate(-207.696 -122.505)"/><path class="p" d="M213.316,130.541h0c.591.341,1.07.067,1.07-.614V128.7l-2.14-1.236v1.231A2.363,2.363,0,0,0,213.316,130.541Z" transform="translate(-210.29 -121.619)"/><g transform="translate(0.471)"><path class="q" d="M214.606,114.613a5.837,5.837,0,0,1,2.545,5.213v3.56a5.9,5.9,0,0,0-2.662-2.169" transform="translate(-212.039 -114.295)"/><path class="q" d="M211.386,114.192c-.505-.292-2.545-1.17-2.545,2.274v3.56s.839-.447,2.662.9" transform="translate(-208.82 -113.874)"/><path class="p" d="M210.747,120.851l.483.6a1.462,1.462,0,0,0,1.129.652l.483-.042c.725-.063,1.17-.694,1.17-1.656v-1.913a4.895,4.895,0,0,0-2.218-3.833h0c-1.225-.707-2.218-.138-2.218,1.271v1.913A5.1,5.1,0,0,0,210.747,120.851Z" transform="translate(-209.239 -114.148)"/><path class="p" d="M219.447,126.611h0c.186.107.338.021.338-.193v-.891a.745.745,0,0,0-.338-.583h0c-.186-.107-.337-.021-.337.193v.891A.746.746,0,0,0,219.447,126.611Z" transform="translate(-214.673 -120.158)"/><path class="p" d="M209.13,120.653h0c.186.107.337.021.337-.193v-.891a.746.746,0,0,0-.337-.583h0c-.187-.107-.338-.021-.338.193v.891A.743.743,0,0,0,209.13,120.653Z" transform="translate(-208.792 -116.762)"/><path class="q" d="M210.145,115.121a10.611,10.611,0,0,0,3.861,4.642v-1.381a4.979,4.979,0,0,0-2.242-3.873c-1.895-1.094-2.481-.068-2.372,2.057C209.393,116.566,210.125,116.59,210.145,115.121Z" transform="translate(-209.127 -113.983)"/></g></g></g></g><g transform="translate(1.619 18.654)"><path class="r" d="M199.958,146.149l12.708,7.338V152.7l-12.708-7.338Z" transform="translate(-199.958 -141.899)"/><path class="r" d="M206.93,137.791l6.713,3.876v-.486L206.93,137.3Z" transform="translate(-203.932 -137.305)"/><path class="r" d="M199.958,148.856l12.708,7.338v-.785l-12.708-7.338Z" transform="translate(-199.958 -143.442)"/><path class="r" d="M199.958,151.563l12.708,7.338v-.785l-12.708-7.338Z" transform="translate(-199.958 -144.985)"/><path class="r" d="M199.958,154.269l12.708,7.338v-.785l-12.708-7.338Z" transform="translate(-199.958 -146.528)"/><path class="r" d="M199.958,156.976l12.708,7.338v-.785l-12.708-7.338Z" transform="translate(-199.958 -148.071)"/></g><g transform="translate(3.738 20.606)"><path class="s" d="M221.463,151.89a1.479,1.479,0,0,0,.671,1.159c.371.214.671.042.671-.384a1.48,1.48,0,0,0-.671-1.159C221.763,151.292,221.463,151.464,221.463,151.89Z" transform="translate(-214.336 -147.298)"/><path class="t" d="M215.938,148.7a1.48,1.48,0,0,0,.671,1.159c.371.214.671.042.671-.384a1.48,1.48,0,0,0-.671-1.159C216.238,148.1,215.938,148.274,215.938,148.7Z" transform="translate(-211.186 -145.48)"/><path class="u" d="M210.412,145.509a1.481,1.481,0,0,0,.671,1.159c.37.214.671.042.671-.384a1.48,1.48,0,0,0-.671-1.159C210.713,144.911,210.412,145.083,210.412,145.509Z" transform="translate(-208.036 -143.661)"/><path class="v" d="M204.887,142.319a1.479,1.479,0,0,0,.671,1.159c.37.214.671.042.671-.384a1.48,1.48,0,0,0-.671-1.159C205.188,141.721,204.887,141.893,204.887,142.319Z" transform="translate(-204.887 -141.843)"/></g></g></g><g transform="translate(49.427 28.547)"><path class="k" d="M327.209,196.567V165.9l-17.9-10.335v30.666Z" transform="translate(-309.308 -155.318)"/><path class="c" d="M350.938,209.937l.427-.249V179.022l-.427.249Z" transform="translate(-333.038 -168.688)"/><path class="b" d="M327.635,165.322l-17.9-10.335-.427.249,17.9,10.335Z" transform="translate(-309.308 -154.988)"/><g transform="translate(0.789 2.289)"><path class="l" d="M311.144,187.939l15.946,9.207V169.518l-15.946-9.207Z" transform="translate(-311.144 -160.311)"/><ellipse class="m" cx="4.238" cy="7.34" rx="4.238" ry="7.34" transform="matrix(0.864, -0.503, 0.503, 0.864, 0.619, 9.381)"/><g transform="translate(0.619 5.12)"><g class="n"><g transform="translate(4.327 3.459)"><path class="o" d="M322.647,198.317l6.053,3.5v-1.863a3.258,3.258,0,0,0-1.476-2.551l-3.1-1.79c-.815-.471-1.476-.092-1.476.846Z" transform="translate(-322.647 -188.894)"/><path class="p" d="M328.267,196.93h0c.591.341,1.07.067,1.07-.613v-1.231l-2.14-1.236v1.231A2.361,2.361,0,0,0,328.267,196.93Z" transform="translate(-325.241 -188.008)"/><g transform="translate(0.471)"><path class="q" d="M329.556,181a5.838,5.838,0,0,1,2.545,5.213v3.56a5.893,5.893,0,0,0-2.662-2.169" transform="translate(-326.99 -180.684)"/><path class="q" d="M326.336,180.581c-.505-.292-2.545-1.17-2.545,2.274v3.56s.84-.447,2.662.9" transform="translate(-323.77 -180.263)"/><path class="p" d="M325.7,187.24l.483.6a1.463,1.463,0,0,0,1.129.652l.483-.042c.724-.063,1.17-.694,1.17-1.656v-1.913a4.894,4.894,0,0,0-2.218-3.832h0c-1.225-.707-2.218-.138-2.218,1.271v1.912A5.1,5.1,0,0,0,325.7,187.24Z" transform="translate(-324.19 -180.538)"/><path class="p" d="M334.4,193h0c.186.107.337.021.337-.194v-.89a.744.744,0,0,0-.337-.583h0c-.187-.108-.338-.021-.338.193v.89A.744.744,0,0,0,334.4,193Z" transform="translate(-329.624 -186.547)"/><path class="p" d="M324.08,187.043h0c.186.108.338.021.338-.193v-.891a.745.745,0,0,0-.338-.583h0c-.186-.108-.337-.021-.337.193v.891A.744.744,0,0,0,324.08,187.043Z" transform="translate(-323.743 -183.151)"/><path class="q" d="M325.1,181.51a10.616,10.616,0,0,0,3.862,4.642v-1.381a4.98,4.98,0,0,0-2.242-3.873c-1.895-1.094-2.481-.068-2.371,2.058C324.344,182.956,325.076,182.979,325.1,181.51Z" transform="translate(-324.078 -180.373)"/></g></g></g></g><g transform="translate(1.619 18.654)"><path class="r" d="M314.909,212.538l12.708,7.338v-.785l-12.708-7.338Z" transform="translate(-314.909 -208.288)"/><path class="r" d="M321.88,204.18l6.713,3.876v-.486l-6.713-3.876Z" transform="translate(-318.882 -203.694)"/><path class="r" d="M314.909,215.245l12.708,7.338V221.8l-12.708-7.338Z" transform="translate(-314.909 -209.831)"/><path class="r" d="M314.909,217.952l12.708,7.338V224.5l-12.708-7.338Z" transform="translate(-314.909 -211.374)"/><path class="r" d="M314.909,220.659,327.617,228v-.785l-12.708-7.338Z" transform="translate(-314.909 -212.917)"/><path class="r" d="M314.909,223.365l12.708,7.338v-.785l-12.708-7.338Z" transform="translate(-314.909 -214.46)"/></g><g transform="translate(3.738 20.606)"><path class="s" d="M336.414,218.279a1.48,1.48,0,0,0,.671,1.159c.371.214.671.042.671-.385a1.479,1.479,0,0,0-.671-1.159C336.714,217.681,336.414,217.853,336.414,218.279Z" transform="translate(-329.287 -213.687)"/><path class="t" d="M330.888,215.089a1.48,1.48,0,0,0,.671,1.159c.37.214.671.042.671-.384a1.482,1.482,0,0,0-.671-1.159C331.189,214.491,330.888,214.663,330.888,215.089Z" transform="translate(-326.137 -211.869)"/><path class="u" d="M325.363,211.9a1.482,1.482,0,0,0,.671,1.159c.371.214.671.042.671-.384a1.481,1.481,0,0,0-.671-1.159C325.664,211.3,325.363,211.472,325.363,211.9Z" transform="translate(-322.987 -210.05)"/><path class="v" d="M319.838,208.708a1.48,1.48,0,0,0,.671,1.159c.371.214.671.042.671-.384a1.479,1.479,0,0,0-.671-1.159C320.138,208.11,319.838,208.282,319.838,208.708Z" transform="translate(-319.838 -208.232)"/></g></g></g><g transform="translate(7.697 11.331)"><path class="k" d="M230.159,156.528V125.863l-17.9-10.335v30.666Z" transform="translate(-212.259 -115.279)"/><path class="c" d="M253.888,169.9l.427-.249V138.984l-.427.249Z" transform="translate(-235.988 -128.649)"/><path class="b" d="M230.586,125.284l-17.9-10.335-.427.249,17.9,10.335Z" transform="translate(-212.259 -114.949)"/><g transform="translate(0.653 2.176)"><path class="l" d="M213.778,147.638l15.946,9.207V129.217l-15.946-9.207Z" transform="translate(-213.778 -120.01)"/><ellipse class="m" cx="4.238" cy="7.34" rx="4.238" ry="7.34" transform="translate(0.619 9.381) rotate(-30.185)"/><g transform="translate(0.619 5.12)"><g class="w"><g transform="translate(4.327 3.169)"><path class="x" d="M225.281,158.016l6.054,3.5v-1.863a3.258,3.258,0,0,0-1.477-2.551l-3.1-1.79c-.816-.471-1.477-.092-1.477.846Z" transform="translate(-225.281 -148.303)"/><path class="p" d="M230.9,156.629h0c.591.341,1.07.067,1.07-.613v-1.231l-2.14-1.236v1.231A2.362,2.362,0,0,0,230.9,156.629Z" transform="translate(-227.875 -147.416)"/><g transform="translate(0.471)"><path class="p" d="M228.332,146.939l.483.6a1.465,1.465,0,0,0,1.129.652l.483-.042c.725-.063,1.17-.694,1.17-1.656V144.58a4.893,4.893,0,0,0-2.218-3.832h0c-1.225-.707-2.218-.138-2.218,1.271v1.913A5.1,5.1,0,0,0,228.332,146.939Z" transform="translate(-226.824 -139.946)"/><path class="p" d="M237.032,152.7h0c.187.108.338.021.338-.193v-.89a.744.744,0,0,0-.338-.583h0c-.186-.107-.337-.021-.337.193v.89A.744.744,0,0,0,237.032,152.7Z" transform="translate(-232.258 -145.956)"/><path class="p" d="M226.715,146.742h0c.186.107.337.021.337-.193v-.891a.744.744,0,0,0-.337-.583h0c-.187-.107-.338-.021-.338.193v.891A.745.745,0,0,0,226.715,146.742Z" transform="translate(-226.377 -142.56)"/><path class="y" d="M231.569,144.608a5.5,5.5,0,0,0-.111-2.171,5.358,5.358,0,0,0-2.252-2.591c-1.687-.974-2.054-.5-2.4.086a3.551,3.551,0,0,0,.095,1.978l.114.608a1.879,1.879,0,0,0,.5-1.791,6.71,6.71,0,0,0,3.234,2.576,2.469,2.469,0,0,0,.6,1.519Z" transform="translate(-226.561 -139.286)"/></g></g></g></g><g transform="translate(1.619 18.655)"><path class="r" d="M217.543,172.237l12.708,7.338v-.785l-12.708-7.338Z" transform="translate(-217.543 -167.987)"/><path class="r" d="M224.515,163.879l6.713,3.876v-.486l-6.713-3.876Z" transform="translate(-221.517 -163.393)"/><path class="r" d="M217.543,174.944l12.708,7.338V181.5l-12.708-7.338Z" transform="translate(-217.543 -169.53)"/><path class="r" d="M217.543,177.651l12.708,7.338V184.2l-12.708-7.338Z" transform="translate(-217.543 -171.073)"/><path class="r" d="M217.543,180.358l12.708,7.338v-.785l-12.708-7.338Z" transform="translate(-217.543 -172.616)"/><path class="r" d="M217.543,183.065l12.708,7.338v-.785l-12.708-7.338Z" transform="translate(-217.543 -174.159)"/></g><g transform="translate(3.738 20.606)"><path class="s" d="M239.048,177.978a1.482,1.482,0,0,0,.671,1.159c.371.214.671.042.671-.384a1.479,1.479,0,0,0-.671-1.159C239.349,177.38,239.048,177.552,239.048,177.978Z" transform="translate(-231.921 -173.387)"/><path class="t" d="M233.523,174.788a1.479,1.479,0,0,0,.671,1.159c.371.214.671.042.671-.384a1.479,1.479,0,0,0-.671-1.159C233.823,174.19,233.523,174.362,233.523,174.788Z" transform="translate(-228.771 -171.568)"/><path class="u" d="M228,171.6a1.48,1.48,0,0,0,.671,1.159c.37.214.671.042.671-.384a1.482,1.482,0,0,0-.671-1.159C228.3,171,228,171.172,228,171.6Z" transform="translate(-225.621 -169.75)"/><path class="v" d="M222.472,168.407a1.481,1.481,0,0,0,.671,1.159c.37.214.671.042.671-.384a1.481,1.481,0,0,0-.671-1.159C222.773,167.809,222.472,167.981,222.472,168.407Z" transform="translate(-222.472 -167.931)"/></g></g></g><g transform="translate(31.527 25.098)"><path class="k" d="M285.579,188.546V157.881l-17.9-10.335v30.666Z" transform="translate(-267.679 -147.297)"/><path class="c" d="M309.308,201.917l.427-.249V171l-.427.249Z" transform="translate(-291.408 -160.667)"/><path class="b" d="M286.006,157.3l-17.9-10.335-.427.249,17.9,10.335Z" transform="translate(-267.679 -146.967)"/><g transform="translate(0.653 2.176)"><path class="l" d="M269.2,179.656l15.946,9.207V161.235L269.2,152.028Z" transform="translate(-269.198 -152.028)"/><ellipse class="m" cx="4.238" cy="7.34" rx="4.238" ry="7.34" transform="translate(0.619 9.381) rotate(-30.185)"/><g transform="translate(0.619 5.12)"><g class="w"><g transform="translate(4.327 3.169)"><path class="x" d="M280.7,190.034l6.054,3.5v-1.863a3.258,3.258,0,0,0-1.477-2.551l-3.1-1.79c-.816-.471-1.477-.092-1.477.846Z" transform="translate(-280.701 -180.321)"/><path class="p" d="M286.321,188.647h0c.591.341,1.07.067,1.07-.613V186.8l-2.14-1.236V186.8A2.362,2.362,0,0,0,286.321,188.647Z" transform="translate(-283.295 -179.434)"/><g transform="translate(0.471)"><path class="p" d="M283.752,178.958l.483.6a1.465,1.465,0,0,0,1.129.652l.483-.042c.725-.063,1.17-.694,1.17-1.656V176.6a4.893,4.893,0,0,0-2.218-3.832h0c-1.225-.707-2.218-.138-2.218,1.271v1.913A5.1,5.1,0,0,0,283.752,178.958Z" transform="translate(-282.244 -171.964)"/><path class="p" d="M292.452,184.717h0c.187.108.338.021.338-.193v-.891a.745.745,0,0,0-.338-.583h0c-.186-.107-.337-.021-.337.193v.891A.744.744,0,0,0,292.452,184.717Z" transform="translate(-287.678 -177.974)"/><path class="p" d="M282.135,178.76h0c.186.108.337.021.337-.193v-.89a.744.744,0,0,0-.337-.583h0c-.187-.107-.338-.021-.338.193v.89A.744.744,0,0,0,282.135,178.76Z" transform="translate(-281.797 -174.578)"/><path class="y" d="M286.99,176.627a5.506,5.506,0,0,0-.111-2.171,5.356,5.356,0,0,0-2.252-2.59c-1.687-.974-2.054-.5-2.4.086a3.549,3.549,0,0,0,.094,1.978l.114.608a1.879,1.879,0,0,0,.5-1.791,6.71,6.71,0,0,0,3.234,2.576,2.469,2.469,0,0,0,.6,1.519Z" transform="translate(-281.982 -171.305)"/></g></g></g></g><g transform="translate(1.619 18.655)"><path class="r" d="M272.963,204.255l12.708,7.338v-.785l-12.708-7.338Z" transform="translate(-272.963 -200.005)"/><path class="r" d="M279.935,195.9l6.713,3.876v-.486l-6.713-3.876Z" transform="translate(-276.937 -195.411)"/><path class="r" d="M272.963,206.962l12.708,7.338v-.785l-12.708-7.338Z" transform="translate(-272.963 -201.548)"/><path class="r" d="M272.963,209.669l12.708,7.338v-.785l-12.708-7.338Z" transform="translate(-272.963 -203.091)"/><path class="r" d="M272.963,212.376l12.708,7.338v-.785l-12.708-7.338Z" transform="translate(-272.963 -204.634)"/><path class="r" d="M272.963,215.083l12.708,7.338v-.785L272.963,214.3Z" transform="translate(-272.963 -206.177)"/></g><g transform="translate(3.738 20.606)"><path class="s" d="M294.468,210a1.482,1.482,0,0,0,.671,1.159c.371.214.671.042.671-.384a1.48,1.48,0,0,0-.671-1.159C294.769,209.4,294.468,209.57,294.468,210Z" transform="translate(-287.341 -205.405)"/><path class="t" d="M288.943,206.806a1.48,1.48,0,0,0,.671,1.159c.371.214.671.042.671-.385a1.479,1.479,0,0,0-.671-1.159C289.243,206.208,288.943,206.38,288.943,206.806Z" transform="translate(-284.191 -203.586)"/><path class="u" d="M283.418,203.616a1.479,1.479,0,0,0,.671,1.159c.371.214.671.042.671-.384a1.48,1.48,0,0,0-.671-1.159C283.718,203.018,283.418,203.19,283.418,203.616Z" transform="translate(-281.042 -201.768)"/><path class="v" d="M277.892,200.426a1.481,1.481,0,0,0,.671,1.159c.37.214.671.042.671-.384a1.482,1.482,0,0,0-.671-1.159C278.193,199.828,277.892,200,277.892,200.426Z" transform="translate(-277.892 -199.949)"/></g></g></g><g transform="translate(13.623 21.665)"><path class="k" d="M243.94,180.563V149.9l-17.9-10.335v30.666Z" transform="translate(-226.04 -139.314)"/><path class="c" d="M267.67,193.933l.427-.249V163.019l-.427.249Z" transform="translate(-249.77 -152.684)"/><path class="b" d="M244.367,149.319l-17.9-10.335-.427.249,17.9,10.335Z" transform="translate(-226.04 -138.984)"/><g transform="translate(0.653 2.176)"><path class="l" d="M227.56,171.673l15.946,9.207V153.252l-15.946-9.207Z" transform="translate(-227.56 -144.044)"/><ellipse class="m" cx="4.238" cy="7.34" rx="4.238" ry="7.34" transform="translate(0.619 9.381) rotate(-30.185)"/><g transform="translate(0.619 5.12)"><g class="w"><g transform="translate(4.327 3.169)"><path class="x" d="M239.063,182.051l6.053,3.5v-1.863a3.257,3.257,0,0,0-1.477-2.551l-3.1-1.79c-.815-.471-1.476-.092-1.476.846Z" transform="translate(-239.063 -172.338)"/><path class="p" d="M244.683,180.664h0c.591.341,1.07.067,1.07-.613V178.82l-2.14-1.236v1.231A2.361,2.361,0,0,0,244.683,180.664Z" transform="translate(-241.657 -171.451)"/><g transform="translate(0.471)"><path class="p" d="M242.113,170.974l.483.6a1.463,1.463,0,0,0,1.129.652l.483-.042c.724-.063,1.17-.694,1.17-1.656v-1.913a4.895,4.895,0,0,0-2.218-3.832h0c-1.225-.707-2.218-.138-2.218,1.271v1.913A5.1,5.1,0,0,0,242.113,170.974Z" transform="translate(-240.606 -163.981)"/><path class="p" d="M250.814,176.734h0c.186.108.337.021.337-.193v-.89a.744.744,0,0,0-.337-.583h0c-.187-.107-.338-.021-.338.193v.89A.744.744,0,0,0,250.814,176.734Z" transform="translate(-246.04 -169.99)"/><path class="p" d="M240.5,170.777h0c.186.108.338.021.338-.193v-.891a.745.745,0,0,0-.338-.583h0c-.186-.107-.337-.021-.337.193v.891A.744.744,0,0,0,240.5,170.777Z" transform="translate(-240.159 -166.595)"/><path class="y" d="M245.351,168.643a5.5,5.5,0,0,0-.112-2.171,5.356,5.356,0,0,0-2.252-2.591c-1.687-.974-2.054-.5-2.4.086a3.555,3.555,0,0,0,.094,1.979l.114.608a1.879,1.879,0,0,0,.5-1.791,6.708,6.708,0,0,0,3.235,2.575,2.469,2.469,0,0,0,.6,1.52Z" transform="translate(-240.343 -163.321)"/></g></g></g></g><g transform="translate(1.619 18.655)"><path class="r" d="M231.324,196.272l12.708,7.338v-.785l-12.708-7.338Z" transform="translate(-231.324 -192.022)"/><path class="r" d="M238.3,187.914l6.713,3.876V191.3l-6.713-3.876Z" transform="translate(-235.298 -187.428)"/><path class="r" d="M231.324,198.979l12.708,7.338v-.785l-12.708-7.338Z" transform="translate(-231.324 -193.565)"/><path class="r" d="M231.324,201.686l12.708,7.338v-.785L231.324,200.9Z" transform="translate(-231.324 -195.108)"/><path class="r" d="M231.324,204.393l12.708,7.338v-.785l-12.708-7.338Z" transform="translate(-231.324 -196.651)"/><path class="r" d="M231.324,207.1l12.708,7.338v-.785l-12.708-7.338Z" transform="translate(-231.324 -198.194)"/></g><g transform="translate(3.738 20.606)"><path class="s" d="M252.829,202.013a1.481,1.481,0,0,0,.671,1.159c.37.214.671.042.671-.384a1.48,1.48,0,0,0-.671-1.159C253.13,201.415,252.829,201.587,252.829,202.013Z" transform="translate(-245.702 -197.422)"/><path class="t" d="M247.3,198.823a1.48,1.48,0,0,0,.671,1.159c.37.214.671.042.671-.384a1.482,1.482,0,0,0-.671-1.159C247.6,198.225,247.3,198.4,247.3,198.823Z" transform="translate(-242.553 -195.603)"/><path class="u" d="M241.779,195.633a1.481,1.481,0,0,0,.671,1.159c.371.214.671.042.671-.384a1.481,1.481,0,0,0-.671-1.159C242.08,195.035,241.779,195.207,241.779,195.633Z" transform="translate(-239.403 -193.785)"/><path class="v" d="M236.254,192.442a1.48,1.48,0,0,0,.671,1.159c.371.214.671.042.671-.384a1.479,1.479,0,0,0-.671-1.159C236.554,191.844,236.254,192.016,236.254,192.442Z" transform="translate(-236.254 -191.966)"/></g></g></g></g><g transform="translate(142.818 108.66)"><path class="z" d="M208.684,174.1c-5.807-9.784-15.581-14.708-21.833-11l-5.434,3.123,2.083,3.464a8.031,8.031,0,0,1,1.184-1.467c5.285-1.71,12.556,2.379,17.026,9.911s4.576,15.873.542,19.693a7.913,7.913,0,0,1-1.631.324l2.032,3.378,5.225-2.994C214.129,194.821,214.49,183.881,208.684,174.1Z" transform="translate(-176.691 -161.863)"/><path class="aa" d="M197.195,181.059c-5.806-9.784-15.581-14.708-21.833-11s-6.613,14.649-.807,24.434,15.581,14.708,21.833,11S203,190.843,197.195,181.059Zm-1.208,20.731c-5.285,1.711-12.556-2.379-17.026-9.911s-4.576-15.873-.542-19.693c5.285-1.711,12.556,2.379,17.026,9.911S200.02,197.971,195.986,201.79Z" transform="translate(-170.426 -165.831)"/><path class="ab" d="M181.966,195.806c-4.47-7.532-4.576-15.873-.542-19.693a10.44,10.44,0,0,1,7.652.878c-3.267-1.557-6.562-1.761-9.154-.223-5.324,3.16-5.661,12.426-.752,20.7s13.2,12.416,18.528,9.257a7.372,7.372,0,0,0,1.294-1C193.706,207.427,186.436,203.337,181.966,195.806Z" transform="translate(-173.431 -169.757)"/><path class="ac" d="M202.166,186.042c-4.47-7.532-11.741-11.622-17.026-9.911-4.034,3.82-3.928,12.161.542,19.693s11.74,11.622,17.026,9.911C206.742,201.915,206.636,193.574,202.166,186.042Z" transform="translate(-177.147 -169.776)"/><g class="ad" transform="translate(7.51 20.792)"><path class="ae" d="M202.137,223.877c-4.375,0-9.338-3.37-12.559-8.8a22.506,22.506,0,0,1-1.609-3.29,1.154,1.154,0,1,1,2.15-.839,20.156,20.156,0,0,0,1.443,2.951c3.23,5.442,8.5,8.629,12.259,7.411a1.154,1.154,0,0,1,.711,2.2A7.747,7.747,0,0,1,202.137,223.877Z" transform="translate(-187.891 -210.217)"/></g><g class="ad" transform="translate(6.268 8.174)"><path class="ae" d="M186.168,190.209a1.154,1.154,0,0,1-1.152-1.105c-.141-3.332.812-6.143,2.683-7.914a1.154,1.154,0,0,1,1.587,1.676c-1.379,1.305-2.076,3.486-1.964,6.141a1.154,1.154,0,0,1-1.1,1.2Z" transform="translate(-185.002 -180.874)"/></g><g transform="translate(32.822 27.057)"><path class="af" d="M247.2,226.107c.626-1.056,1.681-1.587,2.355-1.187l12.028,6.992-2.291,3.809-12-6.978C246.615,228.343,246.577,227.163,247.2,226.107Z" transform="translate(-246.757 -224.787)"/><path class="ag" d="M277.564,243.785c-.626,1.055-1.681,1.587-2.355,1.186s-.713-1.58-.087-2.636,1.681-1.587,2.355-1.187S278.19,242.73,277.564,243.785Z" transform="translate(-262.671 -234.038)"/></g><g transform="translate(43.293 32.441)"><path class="z" d="M271.9,239.645c1.109-1.868,2.975-2.808,4.169-2.1l21.284,12.374-4.054,6.74L272.052,244.31C270.858,243.6,270.789,241.513,271.9,239.645Z" transform="translate(-271.109 -237.309)"/><path class="ah" d="M325.627,270.93c-1.109,1.868-2.975,2.808-4.169,2.1s-1.262-2.8-.154-4.665,2.975-2.808,4.168-2.1S326.735,269.062,325.627,270.93Z" transform="translate(-299.271 -253.68)"/><path class="ai" d="M326.425,272.264c-.723,1.219-1.941,1.833-2.721,1.371s-.824-1.826-.1-3.045,1.941-1.833,2.721-1.371S327.149,271.045,326.425,272.264Z" transform="translate(-300.738 -255.41)"/></g></g><g transform="translate(172.191 162.982)"><g transform="translate(0 9.303)"><path class="aa" d="M239.9,339.641l35.971-20.768a2.325,2.325,0,0,1,2.325,0l23.156,13.37a1.84,1.84,0,0,1,0,3.188l-14.163,8.178a6.769,6.769,0,0,1-6.77,0h0L261.026,354.8a1.84,1.84,0,0,1-1.841,0L239.9,343.667A2.325,2.325,0,0,1,239.9,339.641Z" transform="translate(-238.735 -314.808)"/><path class="aj" d="M239.9,332.559l35.971-20.768a2.325,2.325,0,0,1,2.325,0l23.156,13.369a1.841,1.841,0,0,1,0,3.189l-14.163,8.177a6.769,6.769,0,0,1-6.77,0h0l-19.39,11.195a1.84,1.84,0,0,1-1.841,0L239.9,336.585A2.325,2.325,0,0,1,239.9,332.559Z" transform="translate(-238.735 -310.771)"/><path class="aa" d="M239.9,330.911l35.971-20.768a2.325,2.325,0,0,1,2.325,0l23.156,13.369a1.841,1.841,0,0,1,0,3.189l-14.163,8.177a6.771,6.771,0,0,1-6.77,0h0l-19.39,11.194a1.84,1.84,0,0,1-1.841,0L239.9,334.937A2.325,2.325,0,0,1,239.9,330.911Z" transform="translate(-238.735 -309.831)"/><g transform="translate(0.896 20.565)"><path class="ae" d="M247.689,365.592l-6.87-3.966,6.87-3.966,6.87,3.966Z" transform="translate(-240.819 -357.66)"/><g class="ak"><g transform="translate(3.07 0.651)"><path class="x" d="M258.833,359.174l4.3,2.562-1.164.651a2.333,2.333,0,0,1-2.11-.031l-2.2-1.312a.643.643,0,0,1,.013-1.219Z" transform="translate(-253.241 -359.174)"/><path class="p" d="M259.651,363.723h0a.466.466,0,0,1-.009.884l-.77.43-1.521-.906.77-.43A1.692,1.692,0,0,1,259.651,363.723Z" transform="translate(-253.312 -361.656)"/><g transform="translate(0 2.132)"><path class="p" d="M253.117,364.188l.544.092a1.048,1.048,0,0,1,.8.478l.143.316c.214.475-.025.974-.626,1.311l-1.2.668a3.5,3.5,0,0,1-3.171-.046h0a.966.966,0,0,1,.019-1.831l1.2-.669A3.65,3.65,0,0,1,253.117,364.188Z" transform="translate(-248.533 -364.132)"/><path class="p" d="M259.4,369.132h0a.147.147,0,0,1,0,.278l-.556.311a.533.533,0,0,1-.482-.007h0a.147.147,0,0,1,0-.278l.556-.311A.533.533,0,0,1,259.4,369.132Z" transform="translate(-253.831 -366.947)"/><path class="p" d="M252.071,364.765h0a.147.147,0,0,1,0,.279l-.556.311a.532.532,0,0,1-.482-.007h0a.147.147,0,0,1,0-.279l.557-.311A.532.532,0,0,1,252.071,364.765Z" transform="translate(-249.653 -364.458)"/><path class="y" d="M252.722,367.9a3.941,3.941,0,0,1-1.4.689,3.836,3.836,0,0,1-2.406-.5c-1.2-.714-1.031-1.109-.786-1.531a2.546,2.546,0,0,1,1.27-.633l.42-.141a1.347,1.347,0,0,1-.946.937,4.8,4.8,0,0,1,2.74,1.121,1.767,1.767,0,0,1,1.158-.159Z" transform="translate(-247.958 -365.073)"/></g></g></g></g></g><g transform="translate(0 4.651)"><path class="aj" d="M239.9,321.742l35.971-20.768a2.325,2.325,0,0,1,2.325,0l23.156,13.369a1.841,1.841,0,0,1,0,3.189l-14.163,8.177a6.771,6.771,0,0,1-6.77,0h0L261.026,336.9a1.84,1.84,0,0,1-1.841,0L239.9,325.768A2.325,2.325,0,0,1,239.9,321.742Z" transform="translate(-238.735 -299.953)"/><path class="aa" d="M239.9,320.093l35.971-20.768a2.325,2.325,0,0,1,2.325,0l23.156,13.37a1.84,1.84,0,0,1,0,3.188l-14.163,8.177a6.769,6.769,0,0,1-6.77,0h0l-19.39,11.195a1.84,1.84,0,0,1-1.841,0L239.9,324.119A2.325,2.325,0,0,1,239.9,320.093Z" transform="translate(-238.735 -299.013)"/><g transform="translate(0.896 20.566)"><path class="ae" d="M247.689,354.775l-6.87-3.966,6.87-3.966,6.87,3.966Z" transform="translate(-240.819 -346.842)"/><g class="al"><g transform="translate(3.07 0.651)"><path class="x" d="M258.833,348.357l4.3,2.562-1.164.651a2.331,2.331,0,0,1-2.11-.031l-2.2-1.312a.643.643,0,0,1,.013-1.219Z" transform="translate(-253.241 -348.357)"/><path class="p" d="M259.651,352.905h0a.466.466,0,0,1-.009.883l-.77.43-1.521-.906.77-.43A1.69,1.69,0,0,1,259.651,352.905Z" transform="translate(-253.312 -350.839)"/><g transform="translate(0 2.132)"><path class="p" d="M253.117,353.371l.544.092a1.047,1.047,0,0,1,.8.478l.143.316c.214.475-.025.974-.626,1.311l-1.2.669a3.505,3.505,0,0,1-3.171-.046h0a.966.966,0,0,1,.019-1.831l1.2-.669A3.65,3.65,0,0,1,253.117,353.371Z" transform="translate(-248.533 -353.315)"/><path class="p" d="M259.4,358.314h0a.147.147,0,0,1,0,.279l-.556.311a.533.533,0,0,1-.482-.007h0a.147.147,0,0,1,0-.279l.556-.311A.533.533,0,0,1,259.4,358.314Z" transform="translate(-253.831 -356.129)"/><path class="p" d="M252.071,353.948h0a.147.147,0,0,1,0,.278l-.556.311a.533.533,0,0,1-.482-.007h0a.147.147,0,0,1,0-.279l.557-.311A.532.532,0,0,1,252.071,353.948Z" transform="translate(-249.653 -353.64)"/><path class="y" d="M252.722,357.085a3.941,3.941,0,0,1-1.4.689,3.836,3.836,0,0,1-2.406-.5c-1.2-.714-1.031-1.108-.786-1.531a2.543,2.543,0,0,1,1.27-.632l.42-.141a1.347,1.347,0,0,1-.946.936,4.806,4.806,0,0,1,2.74,1.121,1.77,1.77,0,0,1,1.158-.159Z" transform="translate(-247.958 -354.257)"/></g></g></g></g></g><path class="aj" d="M239.9,310.924l35.971-20.768a2.325,2.325,0,0,1,2.325,0l23.156,13.37a1.84,1.84,0,0,1,0,3.188l-14.163,8.177a6.769,6.769,0,0,1-6.77,0h0l-19.39,11.195a1.84,1.84,0,0,1-1.841,0L239.9,314.95A2.325,2.325,0,0,1,239.9,310.924Z" transform="translate(-238.735 -289.136)"/><path class="aa" d="M239.9,309.276l35.971-20.768a2.325,2.325,0,0,1,2.325,0l23.156,13.369a1.841,1.841,0,0,1,0,3.189l-14.163,8.177a6.771,6.771,0,0,1-6.77,0h0l-19.39,11.195a1.842,1.842,0,0,1-1.841,0L239.9,313.3A2.325,2.325,0,0,1,239.9,309.276Z" transform="translate(-238.735 -288.197)"/><g transform="translate(0.896 20.566)"><path class="ae" d="M247.689,343.958l-6.87-3.966,6.87-3.966,6.87,3.966Z" transform="translate(-240.819 -336.025)"/><g class="am"><g transform="translate(3.07 0.651)"><path class="x" d="M258.833,337.539l4.3,2.562-1.164.651a2.333,2.333,0,0,1-2.11-.031l-2.2-1.312a.643.643,0,0,1,.013-1.219Z" transform="translate(-253.241 -337.539)"/><path class="p" d="M259.651,342.088h0a.466.466,0,0,1-.009.883l-.77.43-1.521-.906.77-.43A1.69,1.69,0,0,1,259.651,342.088Z" transform="translate(-253.312 -340.021)"/><g transform="translate(0 2.132)"><path class="p" d="M253.117,342.553l.544.092a1.048,1.048,0,0,1,.8.478l.143.317c.214.475-.025.974-.626,1.311l-1.2.669a3.505,3.505,0,0,1-3.171-.047h0a.966.966,0,0,1,.019-1.831l1.2-.669A3.65,3.65,0,0,1,253.117,342.553Z" transform="translate(-248.533 -342.497)"/><path class="p" d="M259.4,347.5h0a.147.147,0,0,1,0,.278l-.556.311a.534.534,0,0,1-.482-.007h0a.147.147,0,0,1,0-.279l.556-.311A.533.533,0,0,1,259.4,347.5Z" transform="translate(-253.831 -345.312)"/><path class="p" d="M252.071,343.13h0a.147.147,0,0,1,0,.279l-.556.311a.532.532,0,0,1-.482-.007h0a.147.147,0,0,1,0-.278l.557-.311A.533.533,0,0,1,252.071,343.13Z" transform="translate(-249.653 -342.823)"/><path class="y" d="M252.722,346.267a3.941,3.941,0,0,1-1.4.689,3.836,3.836,0,0,1-2.406-.5c-1.2-.714-1.031-1.109-.786-1.531a2.546,2.546,0,0,1,1.27-.633l.42-.141a1.347,1.347,0,0,1-.946.937,4.8,4.8,0,0,1,2.74,1.121,1.767,1.767,0,0,1,1.158-.159Z" transform="translate(-247.958 -343.438)"/></g></g></g></g></g></g></svg>