<svg xmlns="http://www.w3.org/2000/svg" width="156.857" height="144" viewBox="0 0 156.857 144">
  <g id="icon-empresas" transform="translate(-240.535 -47.054)">
    <g id="Grupo_5" data-name="Grupo 5" transform="translate(265.267 55.075)">
      <g id="Grupo_4" data-name="Grupo 4">
        <g id="Grupo_2" data-name="Grupo 2" transform="translate(46.022)">
          <path id="Caminho_1" data-name="Caminho 1" d="M454.051,99.9,391.479,63.8a2.4,2.4,0,0,0-2.142-.288l0-.007-.1.048-.025.011-2.037.959,2.211,1.1c0,.041,0,.08,0,.122l.019,51.393a8.421,8.421,0,0,0,3.555,6.706l60.9,35.133.346,2.867,2.224-1.061a3.065,3.065,0,0,0,1.2-2.789l-.019-51.393A8.42,8.42,0,0,0,454.051,99.9Z" transform="translate(-385.867 -63.376)" fill="#03330e"/>
          <path id="Caminho_2" data-name="Caminho 2" d="M454.051,99.9,391.479,63.8a2.4,2.4,0,0,0-2.142-.288l0-.007-.1.048-.025.011-2.037.959,2.211,1.1c0,.041,0,.08,0,.122l.012,33.871,28.477,22.5,38.664-19.458A7.017,7.017,0,0,0,454.051,99.9Z" transform="translate(-385.867 -63.376)" fill="#045119"/>
          <path id="Caminho_3" data-name="Caminho 3" d="M519.043,139.344l-6.132,2.579,4.63,3.567,3.866-1.646A9,9,0,0,0,519.043,139.344Z" transform="translate(-449.814 -102.012)" fill="#054c15"/>
          <path id="Caminho_4" data-name="Caminho 4" d="M450.66,162.576l-62.572-36.1a8.421,8.421,0,0,1-3.555-6.707l-.019-51.393c0-2.572,1.589-3.739,3.552-2.607l62.572,36.1a8.42,8.42,0,0,1,3.555,6.706l.019,51.393C454.213,162.541,452.623,163.709,450.66,162.576Z" transform="translate(-384.514 -64.376)" fill="#d4ffde"/>
          <path id="Caminho_5" data-name="Caminho 5" d="M451.016,162.655l-58.439-33.7a7.706,7.706,0,0,1-3.253-6.137l-.018-47.029c0-2.353,1.455-3.422,3.25-2.385L451,107.1a7.706,7.706,0,0,1,3.253,6.137l.018,47.029C454.267,162.623,452.812,163.691,451.016,162.655Z" transform="translate(-386.951 -68.277)" fill="#fff"/>
          <path id="Caminho_6" data-name="Caminho 6" d="M451.016,162.655l-58.439-33.7a7.706,7.706,0,0,1-3.253-6.137l-.018-47.029c0-2.353,1.455-3.422,3.25-2.385L451,107.1a7.706,7.706,0,0,1,3.253,6.137l.018,47.029C454.267,162.623,452.812,163.691,451.016,162.655Z" transform="translate(-386.951 -68.277)" fill="#fff"/>
        </g>
        <path id="Caminho_7" data-name="Caminho 7" d="M403.968,232.148l-8.415-1.111-54.316-31.359a7.552,7.552,0,0,0-6.794.282l-38.488,22.213-5.088-.672v2.887h.005a1.981,1.981,0,0,0,1.168,1.783L353.6,261.711a7.552,7.552,0,0,0,6.794-.282l41.915-24.192a2.743,2.743,0,0,0,1.662-2.285h0Z" transform="translate(-290.866 -132.351)" fill="#03330e"/>
        <path id="Caminho_8" data-name="Caminho 8" d="M363.157,223.826,359.3,221.6H316.872l-20.916,12.068-5.088-.672v2.887h.005a1.981,1.981,0,0,0,1.168,1.783L353.6,273.2a6.37,6.37,0,0,0,3.506.657Z" transform="translate(-290.866 -143.844)" fill="#045119"/>
        <path id="Caminho_9" data-name="Caminho 9" d="M293.126,245.085l-2.258-.3v2.887h.005a1.981,1.981,0,0,0,1.168,1.783l1.085.627Z" transform="translate(-290.866 -155.638)" fill="#087f24"/>
        <path id="Caminho_10" data-name="Caminho 10" d="M419.779,320.163a7.885,7.885,0,0,0,5.772-.358v-6.44h-5.772Z" transform="translate(-356.427 -190.515)" fill="#054c15"/>
        <path id="Caminho_11" data-name="Caminho 11" d="M353.6,253.874l-61.556-35.539c-1.742-1.005-1.523-2.762.487-3.923l41.915-24.192a7.552,7.552,0,0,1,6.794-.282l61.556,35.54c1.742,1.005,1.523,2.761-.488,3.922l-41.915,24.192A7.55,7.55,0,0,1,353.6,253.874Z" transform="translate(-290.864 -127.398)" fill="#d4ffde"/>
        <path id="Caminho_12" data-name="Caminho 12" d="M402.308,256.119l-41.915,24.192a7.553,7.553,0,0,1-6.794.282l-61.556-35.539a2.29,2.29,0,0,1-1.083-1.184,1.862,1.862,0,0,0,1.083,2.239L353.6,281.647a7.55,7.55,0,0,0,6.794-.282l41.915-24.192c1.351-.78,1.889-1.829,1.57-2.738A3.27,3.27,0,0,1,402.308,256.119Z" transform="translate(-290.867 -155.171)" fill="#fff"/>
        <g id="Grupo_3" data-name="Grupo 3" transform="translate(24.42 64.051)">
          <path id="Caminho_13" data-name="Caminho 13" d="M343.493,220.2l-2.785-1.608c-.224-.129-.2-.354.062-.5l3.288-1.9a.969.969,0,0,1,.872-.036l2.785,1.608c.224.129.2.355-.063.5l-3.287,1.9A.97.97,0,0,1,343.493,220.2Z" transform="translate(-340.557 -205.085)" fill="#03330e"/>
          <path id="Caminho_14" data-name="Caminho 14" d="M352.245,225.259l-2.785-1.608c-.224-.129-.2-.354.063-.5l3.287-1.9a.97.97,0,0,1,.873-.036l2.785,1.608c.224.129.2.354-.062.5l-3.288,1.9A.971.971,0,0,1,352.245,225.259Z" transform="translate(-345.008 -207.655)" fill="#03330e"/>
          <path id="Caminho_15" data-name="Caminho 15" d="M361,230.312l-2.785-1.608c-.224-.129-.2-.355.062-.5l3.288-1.9a.969.969,0,0,1,.872-.036l2.785,1.608c.224.129.2.355-.063.5l-3.287,1.9A.969.969,0,0,1,361,230.312Z" transform="translate(-349.459 -210.225)" fill="#03330e"/>
          <path id="Caminho_16" data-name="Caminho 16" d="M373.1,226.454l-2.785-1.608c-.224-.129-.2-.355.062-.5l2.76-1.593a.969.969,0,0,1,.872-.036l2.785,1.608c.224.129.2.355-.063.5l-2.759,1.593A.972.972,0,0,1,373.1,226.454Z" transform="translate(-355.616 -208.418)" fill="#03330e"/>
          <path id="Caminho_17" data-name="Caminho 17" d="M381.855,231.507,379.07,229.9c-.224-.129-.2-.355.063-.5l2.759-1.593a.969.969,0,0,1,.873-.036l2.785,1.608c.224.129.2.355-.062.5l-2.76,1.593A.968.968,0,0,1,381.855,231.507Z" transform="translate(-360.067 -210.988)" fill="#03330e"/>
          <path id="Caminho_18" data-name="Caminho 18" d="M390.608,236.56l-2.785-1.608c-.224-.129-.2-.355.062-.5l2.76-1.593a.968.968,0,0,1,.872-.036l2.785,1.608c.224.129.2.355-.063.5l-2.759,1.594A.97.97,0,0,1,390.608,236.56Z" transform="translate(-364.518 -213.558)" fill="#03330e"/>
          <path id="Caminho_19" data-name="Caminho 19" d="M399.36,241.613l-2.785-1.608c-.224-.129-.2-.354.063-.5l2.759-1.593a.972.972,0,0,1,.873-.036l2.785,1.608c.224.129.2.354-.062.5l-2.76,1.593A.969.969,0,0,1,399.36,241.613Z" transform="translate(-368.97 -216.128)" fill="#03330e"/>
          <path id="Caminho_20" data-name="Caminho 20" d="M408.112,246.667l-2.785-1.608c-.224-.129-.2-.354.062-.5l2.76-1.593a.969.969,0,0,1,.872-.036l2.785,1.608c.224.129.2.354-.063.5l-2.76,1.593A.971.971,0,0,1,408.112,246.667Z" transform="translate(-373.421 -218.698)" fill="#03330e"/>
          <path id="Caminho_21" data-name="Caminho 21" d="M416.865,251.72l-2.785-1.608c-.224-.129-.2-.355.062-.5l2.76-1.593a.968.968,0,0,1,.872-.036l2.785,1.608c.224.129.2.355-.062.5l-2.76,1.593A.968.968,0,0,1,416.865,251.72Z" transform="translate(-377.872 -221.268)" fill="#03330e"/>
          <path id="Caminho_22" data-name="Caminho 22" d="M425.617,256.773l-2.785-1.608c-.224-.129-.2-.355.063-.5l2.76-1.593a.968.968,0,0,1,.872-.036l2.785,1.608c.224.129.2.355-.062.5l-2.76,1.594A.969.969,0,0,1,425.617,256.773Z" transform="translate(-382.323 -223.838)" fill="#03330e"/>
          <path id="Caminho_23" data-name="Caminho 23" d="M434.37,261.826l-2.785-1.608c-.224-.129-.2-.355.062-.5l2.76-1.593a.971.971,0,0,1,.872-.036l2.785,1.608c.224.129.2.354-.063.5l-2.759,1.594A.97.97,0,0,1,434.37,261.826Z" transform="translate(-386.775 -226.408)" fill="#03330e"/>
          <path id="Caminho_24" data-name="Caminho 24" d="M443.122,266.879l-2.785-1.608c-.224-.129-.2-.354.063-.5l2.759-1.593a.971.971,0,0,1,.873-.036l2.785,1.608c.224.129.2.354-.062.5l-2.76,1.593A.969.969,0,0,1,443.122,266.879Z" transform="translate(-391.226 -228.978)" fill="#03330e"/>
          <path id="Caminho_25" data-name="Caminho 25" d="M451.875,271.933l-2.785-1.608c-.224-.129-.2-.355.062-.5l2.76-1.594a.969.969,0,0,1,.872-.036l2.785,1.608c.224.129.2.355-.063.5l-2.759,1.593A.969.969,0,0,1,451.875,271.933Z" transform="translate(-395.678 -231.548)" fill="#03330e"/>
          <path id="Caminho_26" data-name="Caminho 26" d="M386,224.061l-2.785-1.608c-.224-.129-.2-.355.062-.5l2.76-1.593a.971.971,0,0,1,.872-.036l2.785,1.608c.224.129.2.355-.063.5l-2.759,1.594A.97.97,0,0,1,386,224.061Z" transform="translate(-362.174 -207.201)" fill="#045119"/>
          <path id="Caminho_27" data-name="Caminho 27" d="M377.116,218.933l-2.785-1.608c-.224-.129-.2-.355.062-.5l2.76-1.593a.969.969,0,0,1,.872-.036l2.785,1.608c.224.129.2.355-.063.5l-2.759,1.593A.972.972,0,0,1,377.116,218.933Z" transform="translate(-357.657 -204.593)" fill="#045119"/>
          <path id="Caminho_28" data-name="Caminho 28" d="M364.893,211.876l-6-3.464c-.224-.129-.2-.354.063-.5l2.759-1.593a.972.972,0,0,1,.873-.036l6,3.464c.224.129.2.355-.062.5l-2.76,1.593A.971.971,0,0,1,364.893,211.876Z" transform="translate(-349.806 -200.06)" fill="#03330e"/>
          <path id="Caminho_29" data-name="Caminho 29" d="M372.282,206.3l-4.868-2.81c-.224-.129-.2-.354.063-.5l2.759-1.593a.972.972,0,0,1,.873-.036l4.868,2.811c.224.129.2.354-.063.5l-2.759,1.593A.97.97,0,0,1,372.282,206.3Z" transform="translate(-354.139 -197.559)" fill="#03330e"/>
          <path id="Caminho_30" data-name="Caminho 30" d="M394.751,229.115l-2.785-1.608c-.224-.129-.2-.354.063-.5l2.759-1.593a.97.97,0,0,1,.873-.036l2.785,1.608c.224.129.2.354-.062.5l-2.76,1.593A.971.971,0,0,1,394.751,229.115Z" transform="translate(-366.626 -209.771)" fill="#045119"/>
          <path id="Caminho_31" data-name="Caminho 31" d="M403.5,234.168l-2.785-1.608c-.224-.129-.2-.355.062-.5l2.76-1.594a.969.969,0,0,1,.872-.036l2.785,1.608c.224.129.2.355-.063.5l-2.759,1.593A.969.969,0,0,1,403.5,234.168Z" transform="translate(-371.077 -212.341)" fill="#03330e"/>
          <path id="Caminho_32" data-name="Caminho 32" d="M412.256,239.221l-2.785-1.608c-.224-.129-.2-.355.063-.5l2.759-1.593a.969.969,0,0,1,.873-.036l2.785,1.608c.224.129.2.355-.062.5l-2.76,1.593A.968.968,0,0,1,412.256,239.221Z" transform="translate(-375.528 -214.911)" fill="#03330e"/>
          <path id="Caminho_33" data-name="Caminho 33" d="M421.009,244.274l-2.785-1.608c-.224-.129-.2-.355.062-.5l2.76-1.593a.969.969,0,0,1,.872-.036l2.785,1.608c.224.129.2.355-.063.5l-2.759,1.594A.97.97,0,0,1,421.009,244.274Z" transform="translate(-379.98 -217.481)" fill="#03330e"/>
          <path id="Caminho_34" data-name="Caminho 34" d="M429.761,249.327l-2.785-1.608c-.224-.129-.2-.354.063-.5l2.759-1.593a.971.971,0,0,1,.873-.036l2.785,1.608c.224.129.2.354-.062.5l-2.76,1.593A.97.97,0,0,1,429.761,249.327Z" transform="translate(-384.431 -220.051)" fill="#03330e"/>
          <path id="Caminho_35" data-name="Caminho 35" d="M438.514,254.381l-2.785-1.608c-.224-.129-.2-.355.062-.5l2.76-1.593a.969.969,0,0,1,.872-.036l2.785,1.608c.224.129.2.354-.063.5l-2.759,1.593A.971.971,0,0,1,438.514,254.381Z" transform="translate(-388.882 -222.621)" fill="#03330e"/>
          <path id="Caminho_36" data-name="Caminho 36" d="M447.266,259.434l-2.785-1.608c-.224-.129-.2-.355.063-.5l2.759-1.593a.969.969,0,0,1,.873-.036l2.785,1.608c.224.129.2.355-.062.5l-2.76,1.593A.968.968,0,0,1,447.266,259.434Z" transform="translate(-393.334 -225.191)" fill="#03330e"/>
          <path id="Caminho_37" data-name="Caminho 37" d="M456.018,264.487l-2.785-1.608c-.224-.129-.2-.355.062-.5l2.76-1.593a.968.968,0,0,1,.872-.036l2.785,1.608c.224.129.2.355-.063.5l-2.76,1.594A.969.969,0,0,1,456.018,264.487Z" transform="translate(-397.785 -227.761)" fill="#03330e"/>
          <path id="Caminho_38" data-name="Caminho 38" d="M464.771,269.54l-2.785-1.608c-.224-.129-.2-.354.062-.5l2.76-1.593a.971.971,0,0,1,.872-.036l2.785,1.608c.224.129.2.354-.062.5l-2.76,1.593A.969.969,0,0,1,464.771,269.54Z" transform="translate(-402.236 -230.331)" fill="#03330e"/>
          <path id="Caminho_39" data-name="Caminho 39" d="M476.924,276.557l-6.077-3.509c-.224-.129-.2-.354.063-.5l2.759-1.593a.97.97,0,0,1,.873-.036l6.077,3.508c.224.129.2.355-.063.5l-2.759,1.593A.969.969,0,0,1,476.924,276.557Z" transform="translate(-406.743 -232.933)" fill="#03330e"/>
          <path id="Caminho_40" data-name="Caminho 40" d="M494.945,267.285l-5.129-2.961c-.224-.129-.2-.355.062-.5l2.76-1.593a.968.968,0,0,1,.872-.036l5.129,2.961c.224.129.2.355-.063.5l-2.759,1.593A.969.969,0,0,1,494.945,267.285Z" transform="translate(-416.39 -228.496)" fill="#03330e"/>
          <path id="Caminho_41" data-name="Caminho 41" d="M410.079,228.126l-2.785-1.608c-.224-.129-.2-.355.062-.5l2.76-1.594a.969.969,0,0,1,.872-.036l2.785,1.608c.224.129.2.355-.063.5l-2.759,1.593A.969.969,0,0,1,410.079,228.126Z" transform="translate(-374.421 -209.268)" fill="#03330e"/>
          <path id="Caminho_42" data-name="Caminho 42" d="M401.109,222.947l-2.785-1.608c-.224-.129-.2-.355.062-.5l2.76-1.594a.969.969,0,0,1,.872-.036l2.785,1.608c.224.129.2.355-.063.5l-2.759,1.593A.969.969,0,0,1,401.109,222.947Z" transform="translate(-369.859 -206.634)" fill="#03330e"/>
          <path id="Caminho_43" data-name="Caminho 43" d="M392.138,217.768l-2.785-1.608c-.224-.129-.2-.355.063-.5l2.76-1.593a.968.968,0,0,1,.872-.036l2.785,1.608c.224.129.2.355-.062.5l-2.76,1.593A.968.968,0,0,1,392.138,217.768Z" transform="translate(-365.297 -204)" fill="#045119"/>
          <path id="Caminho_44" data-name="Caminho 44" d="M383.168,212.589l-2.785-1.608c-.224-.129-.2-.355.063-.5l2.759-1.593a.969.969,0,0,1,.873-.036l2.785,1.608c.224.129.2.355-.062.5l-2.76,1.593A.968.968,0,0,1,383.168,212.589Z" transform="translate(-360.735 -201.367)" fill="#03330e"/>
          <path id="Caminho_45" data-name="Caminho 45" d="M418.831,233.179l-2.785-1.608c-.224-.129-.2-.355.063-.5l2.759-1.593a.969.969,0,0,1,.873-.036l2.785,1.608c.224.129.2.355-.062.5l-2.76,1.594A.969.969,0,0,1,418.831,233.179Z" transform="translate(-378.872 -211.838)" fill="#03330e"/>
          <path id="Caminho_46" data-name="Caminho 46" d="M427.584,238.232l-2.785-1.608c-.224-.129-.2-.355.062-.5l2.76-1.593a.97.97,0,0,1,.872-.036l2.785,1.608c.224.129.2.354-.063.5l-2.759,1.594A.97.97,0,0,1,427.584,238.232Z" transform="translate(-383.324 -214.408)" fill="#03330e"/>
          <path id="Caminho_47" data-name="Caminho 47" d="M436.336,243.286l-2.785-1.608c-.224-.129-.2-.354.063-.5l2.759-1.593a.97.97,0,0,1,.873-.036l2.785,1.608c.224.129.2.354-.062.5l-2.76,1.593A.971.971,0,0,1,436.336,243.286Z" transform="translate(-387.775 -216.978)" fill="#03330e"/>
          <path id="Caminho_48" data-name="Caminho 48" d="M445.089,248.339l-2.785-1.608c-.224-.129-.2-.355.062-.5l2.76-1.594A.969.969,0,0,1,446,244.6l2.785,1.608c.224.129.2.355-.063.5l-2.759,1.593A.972.972,0,0,1,445.089,248.339Z" transform="translate(-392.226 -219.548)" fill="#03330e"/>
          <path id="Caminho_49" data-name="Caminho 49" d="M453.841,253.392l-2.785-1.608c-.224-.129-.2-.355.063-.5l2.759-1.593a.969.969,0,0,1,.873-.036l2.785,1.608c.224.129.2.355-.062.5l-2.76,1.593A.968.968,0,0,1,453.841,253.392Z" transform="translate(-396.678 -222.118)" fill="#03330e"/>
          <path id="Caminho_50" data-name="Caminho 50" d="M462.593,258.445l-2.785-1.608c-.224-.129-.2-.355.062-.5l2.76-1.593a.969.969,0,0,1,.872-.036l2.785,1.608c.224.129.2.355-.063.5l-2.76,1.594A.97.97,0,0,1,462.593,258.445Z" transform="translate(-401.129 -224.688)" fill="#03330e"/>
          <path id="Caminho_51" data-name="Caminho 51" d="M471.346,263.5l-2.785-1.608c-.224-.129-.2-.354.062-.5l2.76-1.593a.971.971,0,0,1,.872-.036l2.785,1.608c.224.129.2.354-.062.5l-2.76,1.593A.969.969,0,0,1,471.346,263.5Z" transform="translate(-405.58 -227.258)" fill="#03330e"/>
          <path id="Caminho_52" data-name="Caminho 52" d="M480.1,268.552l-2.785-1.608c-.224-.129-.2-.354.063-.5l2.76-1.593a.969.969,0,0,1,.872-.036l2.785,1.608c.224.129.2.354-.062.5l-2.76,1.593A.971.971,0,0,1,480.1,268.552Z" transform="translate(-410.031 -229.828)" fill="#03330e"/>
          <path id="Caminho_53" data-name="Caminho 53" d="M488.851,273.6,486.066,272c-.224-.129-.2-.355.062-.5l2.76-1.594a.969.969,0,0,1,.872-.036l2.785,1.608c.224.129.2.355-.063.5l-2.759,1.593A.969.969,0,0,1,488.851,273.6Z" transform="translate(-414.483 -232.398)" fill="#03330e"/>
          <path id="Caminho_54" data-name="Caminho 54" d="M405.47,215.627l-2.785-1.608c-.224-.129-.2-.355.063-.5l2.759-1.593a.969.969,0,0,1,.873-.036l2.785,1.608c.224.129.2.355-.062.5l-2.76,1.593A.968.968,0,0,1,405.47,215.627Z" transform="translate(-372.077 -202.912)" fill="#03330e"/>
          <path id="Caminho_55" data-name="Caminho 55" d="M396.761,210.6l-2.785-1.608c-.224-.129-.2-.355.063-.5l2.759-1.594a.97.97,0,0,1,.873-.036l2.785,1.608c.224.129.2.355-.062.5l-2.76,1.593A.968.968,0,0,1,396.761,210.6Z" transform="translate(-367.648 -200.354)" fill="#03330e"/>
          <path id="Caminho_56" data-name="Caminho 56" d="M388.052,205.571l-2.785-1.608c-.224-.129-.2-.355.063-.5l2.759-1.594a.97.97,0,0,1,.873-.036l2.785,1.608c.224.129.2.355-.062.5l-2.76,1.593A.97.97,0,0,1,388.052,205.571Z" transform="translate(-363.219 -197.797)" fill="#03330e"/>
          <path id="Caminho_57" data-name="Caminho 57" d="M379.343,200.543l-2.785-1.608c-.224-.129-.2-.355.063-.5l2.759-1.593a.97.97,0,0,1,.873-.036l2.785,1.608c.224.129.2.355-.062.5l-2.76,1.593A.971.971,0,0,1,379.343,200.543Z" transform="translate(-358.789 -195.24)" fill="#03330e"/>
          <path id="Caminho_58" data-name="Caminho 58" d="M388.3,196.476l-2.785-1.608c-.224-.129-.2-.354.062-.5l.913-.527a.969.969,0,0,1,.872-.036l2.785,1.608c.224.129.2.355-.063.5l-.912.527A.97.97,0,0,1,388.3,196.476Z" transform="translate(-363.344 -193.714)" fill="#03330e"/>
          <path id="Caminho_59" data-name="Caminho 59" d="M399.664,203.038l-2.785-1.608c-.224-.129-.2-.355.062-.5l.913-.527a.971.971,0,0,1,.872-.036l2.785,1.608c.224.129.2.354-.063.5l-.912.526A.969.969,0,0,1,399.664,203.038Z" transform="translate(-369.124 -197.052)" fill="#03330e"/>
          <path id="Caminho_60" data-name="Caminho 60" d="M408.336,208.045l-2.785-1.608c-.224-.129-.2-.355.063-.5l.912-.527a.97.97,0,0,1,.873-.036l2.785,1.608c.224.129.2.354-.062.5l-.913.527A.969.969,0,0,1,408.336,208.045Z" transform="translate(-373.535 -199.598)" fill="#03330e"/>
          <path id="Caminho_61" data-name="Caminho 61" d="M417.009,213.052l-2.785-1.608c-.224-.129-.2-.355.063-.5l.912-.527a.969.969,0,0,1,.872-.036l2.785,1.608c.224.129.2.355-.063.5l-.912.527A.969.969,0,0,1,417.009,213.052Z" transform="translate(-377.946 -202.145)" fill="#03330e"/>
          <path id="Caminho_62" data-name="Caminho 62" d="M425.682,218.059l-2.785-1.608c-.224-.129-.2-.354.062-.5l.913-.527a.969.969,0,0,1,.872-.036l2.785,1.608c.224.129.2.355-.063.5l-.912.527A.97.97,0,0,1,425.682,218.059Z" transform="translate(-382.356 -204.691)" fill="#03330e"/>
          <path id="Caminho_63" data-name="Caminho 63" d="M474.1,246.013l-2.785-1.608c-.224-.129-.2-.354.062-.5l.913-.527a.969.969,0,0,1,.872-.036l2.785,1.608c.224.129.2.355-.062.5l-.912.527A.972.972,0,0,1,474.1,246.013Z" transform="translate(-406.981 -218.908)" fill="#03330e"/>
          <path id="Caminho_64" data-name="Caminho 64" d="M482.772,251.021l-2.785-1.608c-.224-.129-.2-.354.063-.5l.912-.526a.968.968,0,0,1,.872-.036l2.785,1.608c.224.129.2.355-.062.5l-.913.527A.971.971,0,0,1,482.772,251.021Z" transform="translate(-411.391 -221.454)" fill="#03330e"/>
          <path id="Caminho_65" data-name="Caminho 65" d="M491.445,256.027l-2.785-1.608c-.224-.129-.2-.355.062-.5l.913-.527a.968.968,0,0,1,.872-.036l2.785,1.608c.224.129.2.355-.063.5l-.912.527A.971.971,0,0,1,491.445,256.027Z" transform="translate(-415.802 -224.001)" fill="#03330e"/>
          <path id="Caminho_66" data-name="Caminho 66" d="M500.117,261.035l-2.785-1.608c-.224-.129-.2-.355.062-.5l.912-.527a.972.972,0,0,1,.873-.036l2.785,1.608c.224.129.2.355-.062.5l-.913.526A.968.968,0,0,1,500.117,261.035Z" transform="translate(-420.213 -226.548)" fill="#03330e"/>
          <path id="Caminho_67" data-name="Caminho 67" d="M414.222,220.68l-2.785-1.608c-.224-.129-.2-.355.062-.5l2.76-1.593a.971.971,0,0,1,.872-.036l2.785,1.608c.224.129.2.355-.063.5l-2.76,1.594A.969.969,0,0,1,414.222,220.68Z" transform="translate(-376.528 -205.482)" fill="#03330e"/>
          <path id="Caminho_68" data-name="Caminho 68" d="M422.975,225.733l-2.785-1.608c-.224-.129-.2-.354.062-.5l2.76-1.593a.971.971,0,0,1,.872-.036l2.785,1.608c.224.129.2.354-.062.5l-2.76,1.593A.969.969,0,0,1,422.975,225.733Z" transform="translate(-380.98 -208.052)" fill="#03330e"/>
          <path id="Caminho_69" data-name="Caminho 69" d="M431.727,230.787l-2.785-1.608c-.224-.129-.2-.354.063-.5l2.76-1.594a.969.969,0,0,1,.872-.036l2.785,1.608c.224.129.2.355-.062.5l-2.76,1.593A.969.969,0,0,1,431.727,230.787Z" transform="translate(-385.431 -210.622)" fill="#03330e"/>
          <path id="Caminho_70" data-name="Caminho 70" d="M440.48,235.84l-2.785-1.608c-.224-.129-.2-.355.062-.5l2.76-1.594a.969.969,0,0,1,.872-.036l2.785,1.608c.224.129.2.355-.063.5l-2.759,1.593A.969.969,0,0,1,440.48,235.84Z" transform="translate(-389.882 -213.191)" fill="#03330e"/>
          <path id="Caminho_71" data-name="Caminho 71" d="M449.232,240.893l-2.785-1.608c-.224-.129-.2-.355.063-.5l2.759-1.593a.969.969,0,0,1,.873-.036l2.785,1.608c.224.129.2.355-.062.5l-2.76,1.594A.969.969,0,0,1,449.232,240.893Z" transform="translate(-394.334 -215.761)" fill="#03330e"/>
          <path id="Caminho_72" data-name="Caminho 72" d="M457.985,245.946l-2.785-1.608c-.224-.129-.2-.355.062-.5l2.76-1.593a.971.971,0,0,1,.872-.036l2.785,1.608c.224.129.2.354-.063.5l-2.759,1.593A.97.97,0,0,1,457.985,245.946Z" transform="translate(-398.785 -218.332)" fill="#03330e"/>
          <path id="Caminho_73" data-name="Caminho 73" d="M466.737,251l-2.785-1.608c-.224-.129-.2-.354.063-.5l2.759-1.593a.97.97,0,0,1,.873-.036l2.785,1.608c.224.129.2.354-.062.5l-2.76,1.593A.971.971,0,0,1,466.737,251Z" transform="translate(-403.236 -220.902)" fill="#03330e"/>
          <path id="Caminho_74" data-name="Caminho 74" d="M475.49,256.053l-2.785-1.608c-.224-.129-.2-.355.062-.5l2.76-1.594a.969.969,0,0,1,.872-.036l2.785,1.608c.224.129.2.355-.063.5l-2.759,1.593A.969.969,0,0,1,475.49,256.053Z" transform="translate(-407.688 -223.471)" fill="#03330e"/>
          <path id="Caminho_75" data-name="Caminho 75" d="M484.242,261.106l-2.785-1.608c-.224-.129-.2-.355.063-.5l2.759-1.593a.969.969,0,0,1,.873-.036l2.785,1.608c.224.129.2.355-.062.5l-2.76,1.593A.968.968,0,0,1,484.242,261.106Z" transform="translate(-412.139 -226.041)" fill="#03330e"/>
          <path id="Caminho_76" data-name="Caminho 76" d="M358.577,218.067l-8.2-4.736c-.224-.129-.2-.354.063-.5l2.759-1.593a.972.972,0,0,1,.873-.036l8.2,4.736c.224.129.2.355-.062.5l-2.76,1.594A.969.969,0,0,1,358.577,218.067Z" transform="translate(-345.473 -202.562)" fill="#03330e"/>
          <path id="Caminho_77" data-name="Caminho 77" d="M466.1,280.147l-8.2-4.736c-.224-.129-.2-.354.063-.5l2.759-1.593a.971.971,0,0,1,.873-.036l8.2,4.736c.224.129.2.354-.062.5l-2.76,1.594A.969.969,0,0,1,466.1,280.147Z" transform="translate(-400.158 -234.135)" fill="#03330e"/>
          <path id="Caminho_78" data-name="Caminho 78" d="M436.707,274.023l-2.785-1.608c-.224-.129-.2-.354.063-.5l3.287-1.9a.97.97,0,0,1,.873-.036l2.785,1.608c.224.129.2.355-.062.5l-3.288,1.9A.971.971,0,0,1,436.707,274.023Z" transform="translate(-387.964 -232.455)" fill="#03330e"/>
          <path id="Caminho_79" data-name="Caminho 79" d="M371.419,236.328l-4.454-2.572c-.224-.129-.2-.355.063-.5l3.287-1.9a.969.969,0,0,1,.873-.036l4.454,2.572c.224.129.2.355-.063.5l-3.288,1.9A.968.968,0,0,1,371.419,236.328Z" transform="translate(-353.911 -212.795)" fill="#03330e"/>
          <path id="Caminho_80" data-name="Caminho 80" d="M426.547,268.156l-4.455-2.572c-.224-.129-.2-.355.063-.5l3.288-1.9a.969.969,0,0,1,.872-.036l4.454,2.572c.224.129.2.355-.062.5l-3.288,1.9A.968.968,0,0,1,426.547,268.156Z" transform="translate(-381.947 -228.982)" fill="#03330e"/>
          <path id="Caminho_81" data-name="Caminho 81" d="M384.047,243.619l-4.454-2.572c-.224-.129-.2-.355.062-.5l3.288-1.9a.97.97,0,0,1,.873-.036l4.454,2.572c.224.129.2.354-.063.5l-3.288,1.9A.968.968,0,0,1,384.047,243.619Z" transform="translate(-360.333 -216.503)" fill="#03330e"/>
          <path id="Caminho_82" data-name="Caminho 82" d="M384.033,238.735,403.4,249.916a.265.265,0,0,1,0,.5l-3.352,1.935a.96.96,0,0,1-.87,0L379.81,241.173Z" transform="translate(-360.52 -216.611)" fill="#03330e"/>
          <path id="Caminho_83" data-name="Caminho 83" d="M461.894,287.388l3.1,1.791c.183.106.161.29-.051.413l-1.345.776a.8.8,0,0,1-.715.029l-3.1-1.791c-.183-.106-.16-.29.052-.413l1.345-.776A.793.793,0,0,1,461.894,287.388Z" transform="translate(-401.13 -241.318)" fill="#03330e"/>
          <path id="Caminho_84" data-name="Caminho 84" d="M453.069,282.293l3.1,1.791c.183.106.161.291-.051.413l-1.345.776a.8.8,0,0,1-.715.029l-3.1-1.791c-.183-.106-.16-.29.052-.413l1.345-.776A.793.793,0,0,1,453.069,282.293Z" transform="translate(-396.642 -238.727)" fill="#03330e"/>
          <path id="Caminho_85" data-name="Caminho 85" d="M444.317,277.239l3.1,1.791c.183.106.16.291-.052.413l-1.345.776a.8.8,0,0,1-.715.03l-3.1-1.791c-.183-.106-.161-.291.051-.413l1.345-.776A.8.8,0,0,1,444.317,277.239Z" transform="translate(-392.19 -236.157)" fill="#03330e"/>
          <path id="Caminho_86" data-name="Caminho 86" d="M457.9,279.5l3.1,1.791c.183.106.16.29-.052.413l-1.344.776a.8.8,0,0,1-.716.03l-3.1-1.791c-.183-.106-.16-.291.052-.413l1.345-.776A.8.8,0,0,1,457.9,279.5Z" transform="translate(-399.1 -237.308)" fill="#03330e"/>
        </g>
      </g>
    </g>
    <g id="Grupo_7" data-name="Grupo 7" transform="translate(320.822 72.726)">
      <path id="Caminho_87" data-name="Caminho 87" d="M425.24,129.681l-20.42-11.789a2.175,2.175,0,0,1-.909-1.736V100.091c0-.669.407-.976.909-.687l20.42,11.789a2.174,2.174,0,0,1,.908,1.735v16.066C426.148,129.664,425.742,129.971,425.24,129.681Z" transform="translate(-403.912 -99.295)" fill="#d4ffde" opacity="0.4"/>
      <g id="Grupo_6" data-name="Grupo 6" transform="translate(5.976 9.111)">
        <path id="Caminho_88" data-name="Caminho 88" d="M417.18,128.261l-.143-.083a2.308,2.308,0,0,1-.964-1.841V118.68c0-.71.431-1.036.964-.729l.143.083a2.309,2.309,0,0,1,.964,1.841v7.656C418.143,128.242,417.712,128.568,417.18,128.261Z" transform="translate(-416.072 -117.836)" fill="#b5e8c1"/>
        <path id="Caminho_89" data-name="Caminho 89" d="M425.537,136.372l-.144-.083a2.309,2.309,0,0,1-.964-1.841v-4.481c0-.71.431-1.036.964-.729l.144.083a2.308,2.308,0,0,1,.964,1.841v4.481C426.5,136.353,426.069,136.679,425.537,136.372Z" transform="translate(-420.322 -123.576)" fill="#b5e8c1"/>
        <path id="Caminho_90" data-name="Caminho 90" d="M433.894,134.8l-.144-.083a2.307,2.307,0,0,1-.964-1.841V122.205c0-.71.431-1.036.964-.729l.144.083a2.308,2.308,0,0,1,.964,1.841v10.666C434.857,134.777,434.426,135.1,433.894,134.8Z" transform="translate(-424.572 -119.629)" fill="#045119"/>
      </g>
    </g>
    <g id="Grupo_8" data-name="Grupo 8" transform="translate(348.08 89.095)">
      <path id="Caminho_91" data-name="Caminho 91" d="M472.918,142.3l-12.686-7.325a2.038,2.038,0,0,1-.852-1.627h0c0-.628.381-.916.852-.644l12.686,7.325a2.04,2.04,0,0,1,.852,1.628h0C473.77,142.285,473.388,142.573,472.918,142.3Z" transform="translate(-459.38 -132.603)" fill="#b5e8c1"/>
      <path id="Caminho_92" data-name="Caminho 92" d="M464.757,146.669l-4.525-2.613a2.039,2.039,0,0,1-.852-1.628h0c0-.627.381-.915.852-.644l4.525,2.613a2.039,2.039,0,0,1,.852,1.628h0C465.609,146.652,465.228,146.94,464.757,146.669Z" transform="translate(-459.38 -137.221)" fill="#b5e8c1"/>
      <path id="Caminho_93" data-name="Caminho 93" d="M480.212,155.591l-4.525-2.613a2.04,2.04,0,0,1-.852-1.628h0c0-.627.381-.916.852-.644l4.525,2.613a2.039,2.039,0,0,1,.852,1.627h0C481.064,155.575,480.682,155.863,480.212,155.591Z" transform="translate(-467.24 -141.759)" fill="#045119"/>
      <path id="Caminho_94" data-name="Caminho 94" d="M497.615,165.656l-6.474-3.755a2.039,2.039,0,0,1-.852-1.627h0c0-.628.381-.916.852-.644l6.474,3.755a2.039,2.039,0,0,1,.852,1.627h0C498.467,165.639,498.085,165.927,497.615,165.656Z" transform="translate(-475.1 -146.296)" fill="#b5e8c1"/>
      <path id="Caminho_95" data-name="Caminho 95" d="M476.083,162.286l-15.851-9.151a2.039,2.039,0,0,1-.852-1.628h0c0-.627.381-.915.852-.644l15.851,9.152a2.039,2.039,0,0,1,.852,1.627h0C476.935,162.27,476.553,162.558,476.083,162.286Z" transform="translate(-459.38 -141.838)" fill="#b5e8c1"/>
      <path id="Caminho_96" data-name="Caminho 96" d="M482.747,175.161l-22.515-12.948a2.039,2.039,0,0,1-.852-1.628h0c0-.627.381-.916.852-.644l22.515,12.948a2.04,2.04,0,0,1,.852,1.628h0C483.6,175.145,483.217,175.433,482.747,175.161Z" transform="translate(-459.38 -146.455)" fill="#045119"/>
      <path id="Caminho_97" data-name="Caminho 97" d="M501.405,158.728,493.175,154a2.041,2.041,0,0,1-.852-1.628h0c0-.627.381-.916.852-.644l8.231,4.732a2.041,2.041,0,0,1,.852,1.628h0C502.257,158.712,501.876,159,501.405,158.728Z" transform="translate(-476.134 -142.276)" fill="#b5e8c1"/>
    </g>
    <g id="Grupo_9" data-name="Grupo 9" transform="translate(320.769 103.409)">
      <path id="Caminho_98" data-name="Caminho 98" d="M407.81,164.385l-4.005-2.312V166.7l4.005,2.312Z" transform="translate(-403.805 -161.906)" fill="#045119"/>
      <path id="Caminho_99" data-name="Caminho 99" d="M420.685,164.045l-4.005-2.312v8.445l4.005,2.312Z" transform="translate(-410.353 -161.732)" fill="#d4ffde"/>
      <path id="Caminho_100" data-name="Caminho 100" d="M433.56,176.388l-4.005-2.312v6.032l4.005,2.312Z" transform="translate(-416.901 -168.01)" fill="#d4ffde"/>
      <path id="Caminho_101" data-name="Caminho 101" d="M446.435,180.275l-4.005-2.312v7.775l4.005,2.312Z" transform="translate(-423.449 -169.987)" fill="#d4ffde"/>
      <path id="Caminho_102" data-name="Caminho 102" d="M459.31,188.664l-4.005-2.312v7.306l4.005,2.312Z" transform="translate(-429.997 -174.253)" fill="#045119"/>
      <path id="Caminho_103" data-name="Caminho 103" d="M472.185,192.355l-4.005-2.312v9.145l4.005,2.312Z" transform="translate(-436.545 -176.13)" fill="#03330e"/>
      <path id="Caminho_104" data-name="Caminho 104" d="M485.06,197.8l-4.005-2.312V205.61l4.005,2.312Z" transform="translate(-443.093 -178.901)" fill="#d4ffde"/>
      <path id="Caminho_105" data-name="Caminho 105" d="M497.936,200.213,493.93,197.9V210.49l4.005,2.312Z" transform="translate(-449.641 -180.127)" fill="#045119"/>
    </g>
    <g id="Grupo_10" data-name="Grupo 10" transform="translate(390.476 103.432)">
      <rect id="Retângulo_3" data-name="Retângulo 3" width="0.905" height="2.63" transform="matrix(0.248, 0.969, -0.969, 0.248, 6.447, 0)" fill="#087f24"/>
      <rect id="Retângulo_4" data-name="Retângulo 4" width="0.905" height="2.63" transform="matrix(0.248, 0.969, -0.969, 0.248, 5.147, 1.268)" fill="#087f24"/>
      <rect id="Retângulo_5" data-name="Retângulo 5" width="0.905" height="2.63" transform="matrix(0.248, 0.969, -0.969, 0.248, 3.848, 2.536)" fill="#087f24"/>
      <rect id="Retângulo_6" data-name="Retângulo 6" width="0.906" height="2.63" transform="translate(2.548 3.804) rotate(75.624)" fill="#087f24"/>
    </g>
    <path id="Caminho_106" data-name="Caminho 106" d="M433.481,266.8l-8.071-4.66-8.071,4.66,8.071,4.66Z" transform="translate(-89.919 -109.389)" fill="#054c15"/>
    <path id="Caminho_107" data-name="Caminho 107" d="M381.71,268.455l-8.071-4.66-8.071,4.66,8.071,4.66Z" transform="translate(-63.589 -110.23)" fill="#054c15"/>
    <path id="Caminho_108" data-name="Caminho 108" d="M346.953,248.544l-8.071-4.66-8.071,4.66,8.071,4.66Z" transform="translate(-45.912 -100.104)" fill="#054c15"/>
    <g id="Grupo_15" data-name="Grupo 15" transform="translate(284.898 104.949)">
      <g id="Grupo_14" data-name="Grupo 14" transform="translate(0)">
        <g id="Grupo_11" data-name="Grupo 11" transform="translate(17.08 19.104)">
          <path id="Caminho_109" data-name="Caminho 109" d="M381.992,242.735V217.883l8.071-4.66v24.852Z" transform="translate(-373.921 -208.563)" fill="#c13d1a"/>
          <path id="Caminho_110" data-name="Caminho 110" d="M381.71,208.4l-8.071-4.66-8.071,4.66,8.071,4.66Z" transform="translate(-365.568 -203.74)" fill="#ef602e"/>
          <path id="Caminho_111" data-name="Caminho 111" d="M373.639,217.883l-8.071-4.66v24.852l8.071,4.66Z" transform="translate(-365.568 -208.563)" fill="#087f24"/>
          <path id="Caminho_112" data-name="Caminho 112" d="M381.992,242.735V217.883l8.071-4.66v24.852Z" transform="translate(-373.921 -208.563)" fill="#045119"/>
          <path id="Caminho_113" data-name="Caminho 113" d="M381.71,208.4l-8.071-4.66-8.071,4.66,8.071,4.66Z" transform="translate(-365.568 -203.74)" fill="#d4ffde"/>
        </g>
        <g id="Grupo_12" data-name="Grupo 12" transform="translate(34.213 40.001)">
          <path id="Caminho_114" data-name="Caminho 114" d="M416.854,274.385v-13.98l8.071-4.66v13.979Z" transform="translate(-408.783 -251.086)" fill="#03330e"/>
          <path id="Caminho_115" data-name="Caminho 115" d="M408.5,260.406l-8.071-4.66v13.979l8.071,4.66Z" transform="translate(-400.43 -251.086)" fill="#045119"/>
          <path id="Caminho_116" data-name="Caminho 116" d="M416.572,250.923l-8.071-4.66-8.071,4.66,8.071,4.66Z" transform="translate(-400.43 -246.263)" fill="#d4ffde"/>
        </g>
        <g id="Grupo_13" data-name="Grupo 13">
          <path id="Caminho_117" data-name="Caminho 117" d="M347.234,213.179V179.007l8.071-4.66v34.172Z" transform="translate(-339.163 -169.687)" fill="#d4ffde"/>
          <path id="Caminho_118" data-name="Caminho 118" d="M338.882,179.007l-8.071-4.66v34.172l8.071,4.66Z" transform="translate(-330.81 -169.687)" fill="#045119"/>
          <path id="Caminho_119" data-name="Caminho 119" d="M346.953,169.525l-8.071-4.66-8.071,4.66,8.071,4.66Z" transform="translate(-330.81 -164.865)" fill="#087f24"/>
        </g>
      </g>
    </g>
    <g id="Grupo_20" data-name="Grupo 20" transform="translate(277.947 73.481)">
      <g id="Grupo_17" data-name="Grupo 17" transform="translate(1.003)">
        <path id="Caminho_120" data-name="Caminho 120" d="M333.13,213.429a1.821,1.821,0,0,0-2.151.329,10.233,10.233,0,0,0-2.025,4.959c-.036,1.6,1.263,1.489,2.035,1.111s3.029-3.651,3.166-4.293a2.225,2.225,0,0,0-.378-1.678C333.56,213.688,333.13,213.429,333.13,213.429Z" transform="translate(-323.919 -157.983)" fill="#087f24"/>
        <path id="Caminho_121" data-name="Caminho 121" d="M335.432,212.674l.061,1.381a.783.783,0,0,1-.39.718,1.54,1.54,0,0,1-1.028.16c-1-.161-1.093-.448-1.165-1.829S335.432,212.674,335.432,212.674Z" transform="translate(-325.93 -157.55)" fill="#d4ffde"/>
        <g id="Grupo_16" data-name="Grupo 16" transform="translate(0 24.495)">
          <path id="Caminho_122" data-name="Caminho 122" d="M323.2,208.027a1.821,1.821,0,0,0-2.151.329,10.238,10.238,0,0,0-2.025,4.959c-.036,1.6,1.263,1.489,2.035,1.111s3.029-3.651,3.166-4.293a2.227,2.227,0,0,0-.378-1.678C323.633,208.285,323.2,208.027,323.2,208.027Z" transform="translate(-318.87 -179.731)" fill="#087f24"/>
          <path id="Caminho_123" data-name="Caminho 123" d="M325.505,207.272l.061,1.381a.782.782,0,0,1-.39.718,1.537,1.537,0,0,1-1.028.16c-1-.162-1.094-.448-1.166-1.829S325.505,207.272,325.505,207.272Z" transform="translate(-320.882 -179.298)" fill="#d4ffde"/>
          <path id="Caminho_124" data-name="Caminho 124" d="M335.223,153.3c-.395-6.418-6.95.944-6.95.944l-4.487,4.4-4.04,4.439a3.982,3.982,0,0,0-1,3.2l1.634,12.446a1.223,1.223,0,0,0,1.227,1.063,4.169,4.169,0,0,0,.605-.053,1.52,1.52,0,0,0,1.35-1.613l-.3-11.64,8.485-5.115S335.617,159.72,335.223,153.3Z" transform="translate(-318.708 -150.676)" fill="#03330e"/>
        </g>
        <path id="Caminho_125" data-name="Caminho 125" d="M345.15,158.278c-.395-6.417-6.951.945-6.951.945l-4.487,4.4-4.04,4.439a3.982,3.982,0,0,0-1,3.2L330.3,183.7a1.223,1.223,0,0,0,1.226,1.063,4.165,4.165,0,0,0,.606-.053,1.52,1.52,0,0,0,1.35-1.613l-.3-11.64,8.485-5.115S345.544,164.7,345.15,158.278Z" transform="translate(-323.756 -128.711)" fill="#03330e"/>
        <path id="Caminho_126" data-name="Caminho 126" d="M344.425,118.336c4.97,2.061,4.871,5,4.871,5a166.579,166.579,0,0,0-.641,17.964c.139,3.007-15.978,3.237-13.574-4.786,2.834-9.46,1.772-17.118,3.1-18.272S343.14,117.8,344.425,118.336Z" transform="translate(-326.911 -109.37)" fill="#087f24"/>
        <path id="Caminho_127" data-name="Caminho 127" d="M352.419,121.71c-.26,1.009-1.582,1.541-2.953,1.188s-2.272-1.458-2.012-2.466,1.582-1.541,2.953-1.188S352.678,120.7,352.419,121.71Z" transform="translate(-333.305 -110.139)" fill="#ffc2b0"/>
        <path id="Caminho_128" data-name="Caminho 128" d="M350.058,123a3.6,3.6,0,0,1-.9-.115c-1.495-.385-2.474-1.621-2.182-2.755s1.746-1.745,3.243-1.359a3.3,3.3,0,0,1,1.742,1.067,1.9,1.9,0,0,1,.44,1.689A2.272,2.272,0,0,1,350.058,123Zm-.748-3.872a1.8,1.8,0,0,0-1.873,1.119c-.227.881.6,1.857,1.841,2.177s2.437-.136,2.664-1.017a1.439,1.439,0,0,0-.348-1.27,2.836,2.836,0,0,0-1.493-.908A3.2,3.2,0,0,0,349.31,119.127Z" transform="translate(-333.059 -109.895)" fill="#fff"/>
        <path id="Caminho_129" data-name="Caminho 129" d="M350.249,117.594a12.286,12.286,0,0,1-.043,1.774c-.027.5,1.707.958,2.155.51s.269-.914.376-2.6S350.249,117.594,350.249,117.594Z" transform="translate(-334.727 -108.852)" fill="#ffc2b0"/>
        <path id="Caminho_130" data-name="Caminho 130" d="M352.737,117.977a3.492,3.492,0,0,1-2.531,2.162l.032-1.42Z" transform="translate(-334.727 -109.551)" fill="#ea9c92"/>
        <path id="Caminho_131" data-name="Caminho 131" d="M350.277,106.93a3.826,3.826,0,1,1-4.662-2.747A3.826,3.826,0,0,1,350.277,106.93Z" transform="translate(-330.933 -102.473)" fill="#ffc2b0"/>
        <path id="Caminho_132" data-name="Caminho 132" d="M347.424,111.176a11.842,11.842,0,0,1-3.565.913c-1.459.01-1.137-1.211-1.137-1.211l4.329-.626Z" transform="translate(-330.906 -105.622)" fill="#ea9c92"/>
        <path id="Caminho_133" data-name="Caminho 133" d="M341.7,106.622a6.833,6.833,0,0,1,3.445-.454,1.688,1.688,0,0,1,.973.578.573.573,0,0,0,.294.213c.285.065.753-1.119,1.308-1.146s.925.366.47,1.094-.3,1.543-.092,1.66,2.429-1.583.471-5.463-6.933-1.79-7.706-1c0,0-.815.71-1.478.078C339.387,102.179,338.644,107.744,341.7,106.622Z" transform="translate(-329.184 -100.83)" fill="#ffbe92"/>
        <path id="Caminho_134" data-name="Caminho 134" d="M352,143.545v2.91a1.188,1.188,0,0,1-.387.877l-5.979,5.451.679,1.039,7.9-5.727a1.6,1.6,0,0,0,.654-1.131l.534-5.076Z" transform="translate(-332.401 -121.711)" fill="#ffc2b0"/>
        <path id="Caminho_135" data-name="Caminho 135" d="M360.5,126.285s1.814,2.728,2.49,9.909c0,0-3.1,1-4.857.433S360.5,126.285,360.5,126.285Z" transform="translate(-338.538 -113.776)" fill="#087f24"/>
        <path id="Caminho_136" data-name="Caminho 136" d="M357.136,133.3a50.579,50.579,0,0,0-.75,5.586,1.14,1.14,0,0,0,.75,1.1h0Z" transform="translate(-337.87 -117.346)" fill="#045119"/>
      </g>
      <g id="Grupo_18" data-name="Grupo 18" transform="translate(0.956 28.898)">
        <path id="Caminho_137" data-name="Caminho 137" d="M336.373,166.371l-1.321-.174-8.53-4.925a1.186,1.186,0,0,0-1.067.044L319.41,164.8l-.8-.106v.8h0a.311.311,0,0,0,.183.28l9.668,5.582a1.186,1.186,0,0,0,1.067-.044l6.583-3.8a.43.43,0,0,0,.261-.359h0Z" transform="translate(-318.611 -160.414)" fill="#087f24"/>
        <path id="Caminho_138" data-name="Caminho 138" d="M329.964,165.064l-.606-.35H322.7l-3.285,1.9-.8-.106v.8h0a.311.311,0,0,0,.183.28l9.668,5.582a1,1,0,0,0,.55.1Z" transform="translate(-318.611 -162.218)" fill="#045119"/>
        <path id="Caminho_139" data-name="Caminho 139" d="M318.966,168.4l-.355-.047v.8h0a.311.311,0,0,0,.183.28l.171.1Z" transform="translate(-318.611 -164.071)" fill="#087f24"/>
        <path id="Caminho_140" data-name="Caminho 140" d="M338.857,180.536a1.238,1.238,0,0,0,.906-.057v-1.353h-.906Z" transform="translate(-328.908 -169.548)" fill="#fff"/>
        <path id="Caminho_141" data-name="Caminho 141" d="M328.463,169.783,318.8,164.2c-.273-.158-.239-.433.077-.616l6.583-3.8a1.185,1.185,0,0,1,1.067-.044l9.667,5.582c.274.158.239.433-.077.616l-6.583,3.8A1.186,1.186,0,0,1,328.463,169.783Z" transform="translate(-318.611 -159.636)" fill="#fff"/>
        <path id="Caminho_142" data-name="Caminho 142" d="M329.848,171.048l-8.039-4.641c-.227-.131-.2-.361.064-.512l3.527-1.984a.988.988,0,0,1,.887-.037l8.038,4.641c.228.131.2.361-.064.512l-3.527,1.984A.987.987,0,0,1,329.848,171.048Z" transform="translate(-320.16 -161.746)" fill="#d4ffde"/>
      </g>
      <path id="Caminho_143" data-name="Caminho 143" d="M333.138,159.223l-.1.667a4.928,4.928,0,0,0,.043,1.711l.119.588a.827.827,0,0,0,.662.649h0a.456.456,0,0,0,.535-.4l.16-1.426s.365.478.541.478-.2-1.429-.6-2.236S333.138,159.223,333.138,159.223Z" transform="translate(-324.965 -130.357)" fill="#ffc2b0"/>
      <path id="Caminho_144" data-name="Caminho 144" d="M335.925,135.914l-1.037,2.053a4.026,4.026,0,0,0-.425,1.558l-.451,7.022-1.365-.032-.619-7.886a2.873,2.873,0,0,1,.035-.729l.707-4Z" transform="translate(-324.475 -117.649)" fill="#ffc2b0"/>
      <g id="Grupo_19" data-name="Grupo 19" transform="translate(0 24.717)">
        <path id="Caminho_145" data-name="Caminho 145" d="M327.32,165.992l-.81-1.058L317.985,160a1.186,1.186,0,0,1-.494-.947l.007-6.979-.49-.64.46-.266h0a.311.311,0,0,1,.334.019l9.661,5.593a1.186,1.186,0,0,1,.494.947l-.008,7.6a.431.431,0,0,1-.18.405h0Z" transform="translate(-316.84 -151.126)" fill="#03330e"/>
        <path id="Caminho_146" data-name="Caminho 146" d="M321.426,161.99l-.606-.351-3.324-5.774,0-3.792-.49-.64.46-.266h0a.311.311,0,0,1,.334.019l9.661,5.593a1,1,0,0,1,.364.426Z" transform="translate(-316.84 -151.126)" fill="#045119"/>
        <path id="Caminho_147" data-name="Caminho 147" d="M317.226,151.716l-.217-.284.46-.266h0a.311.311,0,0,1,.334.019l.171.1Z" transform="translate(-316.84 -151.126)" fill="#087f24"/>
        <path id="Caminho_148" data-name="Caminho 148" d="M337.437,162.755a1.236,1.236,0,0,1,.4.814l-.944.545-.452-.786Z" transform="translate(-326.725 -157.04)" fill="#054c15"/>
        <path id="Caminho_149" data-name="Caminho 149" d="M326.83,157.321l-9.66-5.593c-.273-.158-.5.009-.5.374l-.008,7.6a1.186,1.186,0,0,0,.494.947l9.661,5.593c.273.158.495-.009.5-.374l.008-7.6A1.185,1.185,0,0,0,326.83,157.321Z" transform="translate(-316.666 -151.402)" fill="#087f24"/>
      </g>
      <path id="Caminho_150" data-name="Caminho 150" d="M343.719,165.1l-.155.321a2.149,2.149,0,0,1-.807.895l-.96.592a.956.956,0,0,1-.979.023l-.032-.02a.577.577,0,0,1-.082-.887l1-1.031s-.563.431-.721.258c-.115-.127.546-.749,1.055-.769a2.01,2.01,0,0,0,1-.42Z" transform="translate(-328.804 -132.987)" fill="#ffc2b0"/>
      <path id="Caminho_151" data-name="Caminho 151" d="M336.5,118.85a31.587,31.587,0,0,0-5.159,7.67,7.506,7.506,0,0,0,4.334,3.153C338.754,130.562,336.5,118.85,336.5,118.85Z" transform="translate(-324.13 -109.995)" fill="#087f24"/>
      <path id="Caminho_152" data-name="Caminho 152" d="M337.918,134.434l.6-5.756-1.4,5.393A8.136,8.136,0,0,0,337.918,134.434Z" transform="translate(-327.063 -114.993)" fill="#045119"/>
      <path id="Caminho_153" data-name="Caminho 153" d="M346.422,116.927l-.988-.271a2.385,2.385,0,0,0,1.16.931c.689.189.8-.394.8-.394Z" transform="translate(-331.297 -108.879)" fill="#fff"/>
    </g>
    <g id="Grupo_27" data-name="Grupo 27" transform="translate(288.183 59.716)">
      <path id="Caminho_170" data-name="Caminho 170" d="M337.495,76.592l.525-.891a1.278,1.278,0,0,0,.91.094,1.771,1.771,0,0,0,.969-1.011,3.106,3.106,0,0,1,3.458-1.9l-.248,1,.124-.5-.12.5a2.048,2.048,0,0,0-2.282,1.343,2.725,2.725,0,0,1-1.61,1.554A2.281,2.281,0,0,1,337.495,76.592Z" transform="translate(-337.495 -72.82)" fill="#087f24"/>
    </g>
    <path id="Caminho_171" data-name="Caminho 171" d="M299.1,139.761a4.743,4.743,0,1,1,4.743-4.743A4.748,4.748,0,0,1,299.1,139.761Zm0-8.451a3.708,3.708,0,1,0,3.708,3.708A3.712,3.712,0,0,0,299.1,131.31Z" transform="translate(-27.374 -42.325)" fill="#d4ffde"/>
    <path id="Caminho_172" data-name="Caminho 172" d="M243.9,275.955a3.363,3.363,0,1,1,3.363-3.363A3.367,3.367,0,0,1,243.9,275.955Zm0-5.692a2.329,2.329,0,1,0,2.329,2.329A2.331,2.331,0,0,0,243.9,270.263Z" transform="translate(0 -112.994)" fill="#087f24"/>
    <path id="Caminho_173" data-name="Caminho 173" d="M287.515,198.878l-2.282-4.643,4.643-2.283,2.283,4.644Zm-.9-4.171,1.37,2.786,2.786-1.37-1.37-2.786Z" transform="translate(-22.732 -73.692)" fill="#087f24"/>
    <rect id="Retângulo_7" data-name="Retângulo 7" width="2.379" height="2.379" transform="matrix(0.897, -0.441, 0.441, 0.897, 377.042, 75.362)" fill="#087f24"/>
    <g id="Grupo_28" data-name="Grupo 28" transform="translate(334.23 47.054)">
      <rect id="Retângulo_8" data-name="Retângulo 8" width="4.916" height="1.034" transform="translate(0 3.476) rotate(-45)" fill="#045119"/>
      <rect id="Retângulo_9" data-name="Retângulo 9" width="1.034" height="4.916" transform="matrix(0.707, -0.707, 0.707, 0.707, 0, 0.731)" fill="#045119"/>
    </g>
    <path id="Caminho_174" data-name="Caminho 174" d="M505.719,52.345a2.441,2.441,0,1,1-2.441-2.441A2.441,2.441,0,0,1,505.719,52.345Z" transform="translate(-132.384 -1.449)" fill="#d4ffde"/>
    <g id="Grupo_31" data-name="Grupo 31" transform="translate(248.385 126.037)">
      <g id="Grupo_29" data-name="Grupo 29">
        <path id="Caminho_175" data-name="Caminho 175" d="M269.089,213.874l-10.388-6a.532.532,0,0,0-.537-.043v-.006l-1.008.582.708.259v7.565a2,2,0,0,0,.836,1.6l9.929,5.732v.887l1.018-.586-.005,0a.74.74,0,0,0,.283-.666v-7.725A2,2,0,0,0,269.089,213.874Z" transform="translate(-256.839 -207.779)" fill="#ff9750"/>
        <path id="Caminho_176" data-name="Caminho 176" d="M267.734,225.027l-10.388-6a2,2,0,0,1-.836-1.6v-7.725c0-.615.374-.9.836-.632l10.388,6a2,2,0,0,1,.836,1.6V224.4C268.57,225.011,268.2,225.294,267.734,225.027Z" transform="translate(-256.51 -208.388)" fill="#ffbe92"/>
      </g>
      <g id="Grupo_30" data-name="Grupo 30" transform="translate(2.927 6.67)">
        <path id="Caminho_177" data-name="Caminho 177" d="M263.869,222.662c0,.447-.314.628-.7.4a1.549,1.549,0,0,1-.7-1.214c0-.447.314-.629.7-.4A1.551,1.551,0,0,1,263.869,222.662Z" transform="translate(-262.467 -221.352)" fill="#fff"/>
        <path id="Caminho_178" data-name="Caminho 178" d="M268.19,225.157c0,.447-.314.629-.7.4a1.551,1.551,0,0,1-.7-1.214c0-.447.314-.628.7-.4A1.549,1.549,0,0,1,268.19,225.157Z" transform="translate(-264.665 -222.621)" fill="#fff"/>
        <path id="Caminho_179" data-name="Caminho 179" d="M272.511,227.652c0,.447-.314.628-.7.4a1.549,1.549,0,0,1-.7-1.214c0-.447.314-.628.7-.4A1.548,1.548,0,0,1,272.511,227.652Z" transform="translate(-266.862 -223.89)" fill="#fff"/>
      </g>
    </g>
    <g id="Grupo_34" data-name="Grupo 34" transform="translate(348.011 55.075)">
      <g id="Grupo_32" data-name="Grupo 32" transform="translate(0 0)">
        <path id="Caminho_180" data-name="Caminho 180" d="M471.818,69.47l-10.388-6a.534.534,0,0,0-.537-.043v-.006l-1.008.582.708.258v7.565a2,2,0,0,0,.836,1.6l9.929,5.732v.888l1.018-.586-.005,0a.741.741,0,0,0,.283-.666V71.068A2,2,0,0,0,471.818,69.47Z" transform="translate(-459.568 -63.376)" fill="#087f24"/>
        <path id="Caminho_181" data-name="Caminho 181" d="M470.463,80.624l-10.388-6a2,2,0,0,1-.836-1.6V65.305c0-.616.374-.9.836-.632l10.388,6a2,2,0,0,1,.836,1.6v7.724C471.3,80.607,470.924,80.89,470.463,80.624Z" transform="translate(-459.239 -63.984)" fill="#d4ffde"/>
      </g>
      <g id="Grupo_33" data-name="Grupo 33" transform="translate(2.927 6.67)">
        <path id="Caminho_182" data-name="Caminho 182" d="M466.6,78.259c0,.447-.314.628-.7.4a1.549,1.549,0,0,1-.7-1.214c0-.447.314-.628.7-.4A1.548,1.548,0,0,1,466.6,78.259Z" transform="translate(-465.196 -76.949)" fill="#fff"/>
        <path id="Caminho_183" data-name="Caminho 183" d="M470.919,80.753c0,.447-.314.628-.7.4a1.55,1.55,0,0,1-.7-1.214c0-.447.314-.629.7-.4A1.55,1.55,0,0,1,470.919,80.753Z" transform="translate(-467.394 -78.217)" fill="#fff"/>
        <path id="Caminho_184" data-name="Caminho 184" d="M475.24,83.248c0,.447-.314.629-.7.4a1.549,1.549,0,0,1-.7-1.214c0-.447.314-.628.7-.4A1.549,1.549,0,0,1,475.24,83.248Z" transform="translate(-469.591 -79.486)" fill="#fff"/>
      </g>
    </g>
    <g id="Grupo_40" data-name="Grupo 40" transform="translate(359.343 143.223)">
      <g id="Grupo_39" data-name="Grupo 39" transform="translate(0 0)">
        <g id="Grupo_38" data-name="Grupo 38">
          <g id="Grupo_35" data-name="Grupo 35" transform="translate(12.946 17.957)">
            <path id="Caminho_185" data-name="Caminho 185" d="M514.741,301.59V282.811l-6.1-3.521v18.779Z" transform="translate(-508.642 -279.29)" fill="#c13d1a"/>
            <path id="Caminho_186" data-name="Caminho 186" d="M521.053,282.811l6.1-3.521v18.779l-6.1,3.521Z" transform="translate(-514.954 -279.29)" fill="#ff9750"/>
            <path id="Caminho_187" data-name="Caminho 187" d="M514.741,301.59V282.811l-6.1-3.521v18.779Z" transform="translate(-508.642 -279.29)" fill="#ffbe92"/>
          </g>
          <g id="Grupo_36" data-name="Grupo 36" transform="translate(0 30.226)">
            <path id="Caminho_188" data-name="Caminho 188" d="M488.4,325.506V314.943l-6.1-3.521v10.563Z" transform="translate(-482.299 -307.9)" fill="#ffbe92"/>
            <path id="Caminho_189" data-name="Caminho 189" d="M494.71,314.943l6.1-3.521v10.563l-6.1,3.521Z" transform="translate(-488.611 -307.9)" fill="#ff9750"/>
            <path id="Caminho_190" data-name="Caminho 190" d="M482.3,307.777l6.1-3.521,6.1,3.521-6.1,3.521Z" transform="translate(-482.299 -304.256)" fill="#ffbe92"/>
          </g>
          <g id="Grupo_37" data-name="Grupo 37" transform="translate(25.852)">
            <path id="Caminho_191" data-name="Caminho 191" d="M541,279.257V253.436l-6.1-3.521v25.821Z" transform="translate(-534.906 -246.393)" fill="#ffbe92"/>
            <path id="Caminho_192" data-name="Caminho 192" d="M547.316,253.436l6.1-3.521v25.821l-6.1,3.521Z" transform="translate(-541.218 -246.393)" fill="#ff9750"/>
            <path id="Caminho_193" data-name="Caminho 193" d="M534.906,246.27l6.1-3.521,6.1,3.521-6.1,3.521Z" transform="translate(-534.906 -242.749)" fill="#ffbe92"/>
          </g>
        </g>
        <path id="Caminho_194" data-name="Caminho 194" d="M508.642,275.646l6.1-3.521,6.1,3.521-6.1,3.521Z" transform="translate(-495.697 -257.689)" fill="#ffbe92"/>
      </g>
    </g>
  </g>
</svg>
